<?xml version="1.0" encoding="utf-8"?>
<!-- Generator: Adobe Illustrator 23.0.3, SVG Export Plug-In . SVG Version: 6.00 Build 0)  -->
<svg version="1.1" id="Capa_1" xmlns="http://www.w3.org/2000/svg" xmlns:xlink="http://www.w3.org/1999/xlink" x="0px" y="0px" width="141.21px" height="37.16px"
	 viewBox="0 0 301.3 154" style="enable-background:new 0 0 301.3 154;" xml:space="preserve">
<style type="text/css">
	.st0{fill:#3B536D;}
</style>
<title>compra-venta</title>
<path class="st0" d="M10,0C4.8,0,0,3.7,0,9v135.9c0,5.3,4.8,9.1,10,9.1h281.2c5.2,0,10-3.8,10-9.1V9c0-5.3-4.8-9-10-9H10z M10,6.7
	h281.2c2.2,0,3.4,1.3,3.4,2.3v135.9c0,1-1.2,2.4-3.4,2.4H10c-2.2,0-3.4-1.4-3.4-2.4V9C6.7,8,7.8,6.7,10,6.7z M56.9,30.1
	c-1.9,0-3.3,1.5-3.3,3.3v6.9c-4.7,0.4-9.2,2.1-13,5c-4.4,3.7-7,9.1-6.9,14.9c-0.1,5.7,2.9,11,7.8,13.9c4.4,2.7,9.5,4,14.1,5.9
	c7.7,2.8,17.8,5.9,17.9,13.7c0.1,3.7-1.6,7.3-4.6,9.5c-3.4,2.6-7.7,4-12,3.9c-7-0.1-13.4-3.7-17.2-9.6C39,95.8,37,95,35.3,95.8
	c-0.1,0-0.2,0.1-0.3,0.1c-1.6,1.1-2,3.3-0.9,4.9c0,0,0,0,0.1,0.1c4.2,6.9,11.4,11.6,19.4,12.6c0,0.1-0.1,0.2-0.1,0.3v6.7
	c0,1.9,1.5,3.4,3.3,3.4c1.9,0,3.4-1.5,3.4-3.4v-6.9c4.7-0.4,9.2-2.2,13-5.1c4.4-3.6,7-9,6.9-14.8c0.1-5.7-2.9-11.1-7.8-14
	c-4.4-2.7-9.5-4-14.1-5.9c-7.6-2.8-17.8-5.9-17.9-13.6c-0.1-3.8,1.6-7.3,4.6-9.6c2.9-2.3,7.1-3.8,12-3.8c7,0,13.4,3.6,17.2,9.5
	c0.7,1.7,2.7,2.5,4.4,1.7c0.1,0,0.2-0.1,0.3-0.1c1.6-1.1,2-3.3,0.9-4.9c0,0,0-0.1-0.1-0.1c-4.2-6.9-11.4-11.5-19.5-12.5
	c0-0.1,0.1-0.2,0.1-0.3v-6.7C60.3,31.6,58.8,30.1,56.9,30.1L56.9,30.1z M110.5,33.5c-1.8-0.1-3.4,1.3-3.5,3.2
	c-0.1,1.8,1.3,3.4,3.2,3.5c0.1,0,0.2,0,0.4,0h147.3c1.8,0.1,3.4-1.3,3.5-3.2c0.1-1.8-1.3-3.4-3.2-3.5c-0.1,0-0.2,0-0.4,0H110.5z
	 M110.5,73.6c-1.9,0-3.3,1.5-3.3,3.4c0,1.8,1.5,3.3,3.3,3.3h46.9c1.9,0,3.3-1.5,3.3-3.4c0-1.8-1.5-3.3-3.3-3.3H110.5z M200.2,73.6
	c-1.1,0.2-2.1,1-2.5,2l-16.1,38.7l-11.7,2.9c-1.8,0.5-2.9,2.3-2.4,4.1s2.3,2.9,4.1,2.4l13.4-3.4c1-0.3,1.9-1,2.3-2l13.4-32.2
	l10.5,28.8c0.9,2.4,4.9,2.6,6.1,0.4l13.5-24.3l10.7,24.1c0.7,1.5,2.3,2.2,3.9,1.9l13.5-3.4c1.8-0.5,2.9-2.3,2.4-4.1
	c-0.5-1.8-2.3-2.9-4.1-2.4l0,0l-10.7,2.6l-12.2-27.5c-1-2.2-4.7-2.4-6-0.3l-13.2,23.8L204,75.8C203.4,74.3,201.8,73.4,200.2,73.6
	L200.2,73.6z"/>
</svg>
