<svg xmlns="http://www.w3.org/2000/svg" width="141.21px" height="37.16px" viewBox="0 0 288.92 288.93"><title>Recurso 11</title><g id="Capa_2" data-name="Capa 2"><g id="Capa_1-2" data-name="Capa 1"><path d="M144.15,0a4.32,4.32,0,0,0-1.74.62L1.23,112.25c-2.28,1.64-.75,6.08,2.05,6H36.12V256.1H3.28A3.37,3.37,0,0,0,0,259.38v26.27a3.4,3.4,0,0,0,3.28,3.28H285.64a3.4,3.4,0,0,0,3.28-3.28V259.38a3.4,3.4,0,0,0-3.28-3.28H259.37V118.21h26.27c2.8.12,4.33-4.32,2.05-6L146.51.63A4.2,4.2,0,0,0,144.15,0Zm.31,7.49L276.2,111.64H12.72Zm0,41.76A19.7,19.7,0,1,0,164.16,69,19.75,19.75,0,0,0,144.46,49.26Zm0,6.56A13.14,13.14,0,1,1,131.33,69,13.09,13.09,0,0,1,144.46,55.82ZM42.68,118.21h19.7V256.1H42.68V118.21Zm26.27,0H226.54V256.1H69V118.21Zm164.16,0h19.7V256.1h-19.7V118.21ZM6.57,262.67H282.35v19.69H6.57Z"/><path d="M144.46,128a4.23,4.23,0,0,0-4.23,4.22v8.72a30.73,30.73,0,0,0-16.37,6.34A24,24,0,0,0,115.14,166a20.06,20.06,0,0,0,9.91,17.57c5.5,3.38,11.93,5.05,17.83,7.39,9.65,3.53,22.45,7.43,22.58,17.31a14.8,14.8,0,0,1-5.81,12,24,24,0,0,1-15.19,4.88,25.88,25.88,0,0,1-21.66-12.15,4.25,4.25,0,0,0-5.94-2,4.45,4.45,0,0,0-1.06,6.34,33.67,33.67,0,0,0,24.57,15.85c0,.14-.14.25-.14.4v8.45a4.23,4.23,0,1,0,8.46,0v-8.72a31.1,31.1,0,0,0,16.37-6.47,23.69,23.69,0,0,0,8.72-18.62,20.29,20.29,0,0,0-9.9-17.7c-5.51-3.38-11.94-5-17.83-7.39-9.6-3.52-22.46-7.41-22.59-17.17a15.06,15.06,0,0,1,5.81-12.16c3.64-3,8.92-4.75,15.19-4.75a25.77,25.77,0,0,1,21.66,12,4.25,4.25,0,0,0,5.94,2,4.45,4.45,0,0,0,1.06-6.34,33.49,33.49,0,0,0-24.57-15.72c0-.14.14-.25.14-.39v-8.46A4.23,4.23,0,0,0,144.46,128Z"/></g></g></svg>