<svg xmlns="http://www.w3.org/2000/svg" viewBox="0 0 276.09 276.09"><title>Recurso 9</title><g id="Capa_2" data-name="Capa 2"><g id="Capa_1-2" data-name="Capa 1"><path d="M138,276.09c-76.11,0-138-61.93-138-138S61.93,0,138,0s138,61.93,138,138S214.16,276.09,138,276.09ZM138,9.6A128.44,128.44,0,1,0,266.48,138,128.59,128.59,0,0,0,138,9.6Z"/><path d="M138,153.5A15.46,15.46,0,1,1,153.5,138,15.48,15.48,0,0,1,138,153.5Zm0-21.32A5.86,5.86,0,1,0,143.9,138,5.87,5.87,0,0,0,138,132.18Z"/><path d="M137.48,126.86a4.8,4.8,0,0,1-4.8-4.81v-48a4.8,4.8,0,0,1,9.6,0v48A4.8,4.8,0,0,1,137.48,126.86Z"/><path d="M138.75,36.25a4.8,4.8,0,0,1-4.8-4.8V20.79a4.81,4.81,0,0,1,9.61,0V31.45A4.8,4.8,0,0,1,138.75,36.25Z"/><path d="M182,45.74A4.8,4.8,0,0,1,177.62,39L182,29.25a4.8,4.8,0,1,1,8.77,3.9l-4.33,9.74A4.8,4.8,0,0,1,182,45.74Z"/><path d="M217.57,71.87a4.81,4.81,0,0,1-3.22-8.37l7.9-7.15a4.81,4.81,0,0,1,6.45,7.13l-7.91,7.15A4.79,4.79,0,0,1,217.57,71.87Z"/><path d="M236.83,102.81A4.8,4.8,0,0,1,235,93.57l9.85-4.07a4.8,4.8,0,0,1,3.67,8.87l-9.86,4.07A4.71,4.71,0,0,1,236.83,102.81Z"/><path d="M94.79,45.74a4.79,4.79,0,0,1-4.39-2.85l-4.33-9.74a4.8,4.8,0,1,1,8.77-3.9L99.17,39a4.79,4.79,0,0,1-4.38,6.75Z"/><path d="M59.22,71.87A4.81,4.81,0,0,1,56,70.63l-7.9-7.15a4.8,4.8,0,0,1,6.44-7.13l7.91,7.15a4.81,4.81,0,0,1-3.23,8.37Z"/><path d="M40,102.81a4.75,4.75,0,0,1-1.83-.37l-9.85-4.07A4.8,4.8,0,1,1,32,89.5l9.85,4.07A4.8,4.8,0,0,1,40,102.81Z"/><path d="M270.72,142.84H174.78a4.8,4.8,0,1,1,0-9.6h95.94a4.8,4.8,0,0,1,0,9.6Z"/><path d="M101.29,142.14H9.56a4.8,4.8,0,0,1,0-9.6h91.73a4.8,4.8,0,0,1,0,9.6Z"/><path d="M138.06,179.57A41.6,41.6,0,0,1,96.49,138a4.8,4.8,0,0,1,9.6,0A31.95,31.95,0,0,0,170,138a4.81,4.81,0,0,1,9.61,0A41.58,41.58,0,0,1,138.06,179.57Z"/></g></g></svg>