<svg xmlns="http://www.w3.org/2000/svg" width="141.21px" height="37.16px" viewBox="0 0 243.1 316.77"><title>Recurso 12</title><g id="Capa_2" data-name="Capa 2"><g id="Capa_1-2" data-name="Capa 1"><path d="M11.51,0A11.32,11.32,0,0,0,0,11.05V305.72a11.32,11.32,0,0,0,11.51,11H231.59a11.32,11.32,0,0,0,11.51-11V11.05A11.32,11.32,0,0,0,231.59,0Zm0,7.37H231.59a3.85,3.85,0,0,1,4.15,3.68V305.72a3.85,3.85,0,0,1-4.15,3.68H11.51a3.84,3.84,0,0,1-4.14-3.68V11.05A3.84,3.84,0,0,1,11.51,7.37ZM70,44.2a3.68,3.68,0,0,0-3.68,3.68v7.6A26.86,26.86,0,0,0,52,61a20.92,20.92,0,0,0-7.6,16.35,17.48,17.48,0,0,0,8.63,15.31c4.8,2.94,10.41,4.4,15.54,6.44,8.42,3.08,19.57,6.47,19.69,15.08a12.92,12.92,0,0,1-5.07,10.48A20.89,20.89,0,0,1,70,128.92a22.54,22.54,0,0,1-18.87-10.59,3.71,3.71,0,0,0-5.18-1.73,3.89,3.89,0,0,0-.92,5.53,29.32,29.32,0,0,0,21.41,13.81c0,.12-.12.22-.12.34v7.37a3.69,3.69,0,0,0,7.37,0v-7.59a27.25,27.25,0,0,0,14.27-5.64,20.68,20.68,0,0,0,7.6-16.23,17.7,17.7,0,0,0-8.63-15.43c-4.8-2.94-10.41-4.4-15.54-6.44-8.37-3.07-19.58-6.46-19.69-15a13.13,13.13,0,0,1,5.07-10.59c3.17-2.58,7.77-4.14,13.23-4.14A22.47,22.47,0,0,1,88.86,73.09,3.7,3.7,0,0,0,94,74.82,3.89,3.89,0,0,0,95,69.29,29.15,29.15,0,0,0,73.55,55.6c0-.13.12-.22.12-.35V47.88A3.69,3.69,0,0,0,70,44.2Zm58.94,29.47a3.68,3.68,0,1,0,0,7.36h66.3a3.68,3.68,0,1,0,0-7.36Zm0,40.51a3.69,3.69,0,0,0,0,7.37h66.3a3.69,3.69,0,0,0,0-7.37Zm-81,40.52a3.69,3.69,0,0,0,0,7.37H195.22a3.69,3.69,0,0,0,0-7.37Zm0,40.52a3.69,3.69,0,0,0,0,7.37H195.22a3.69,3.69,0,0,0,0-7.37Zm0,33.15a3.69,3.69,0,0,0,0,7.37H195.22a3.69,3.69,0,0,0,0-7.37Zm0,40.52a3.68,3.68,0,1,0,0,7.36H195.22a3.68,3.68,0,1,0,0-7.36Z"/></g></g></svg>