<svg xmlns="http://www.w3.org/2000/svg" width="141.21px" height="37.16px" viewBox="0 0 276.85 276.85"><title>Recurso 13</title><g id="Capa_2" data-name="Capa 2"><g id="Capa_1-2" data-name="Capa 1"><path d="M138.42,63.6a5.34,5.34,0,0,0-5.34,5.34V79.63c0,.12,0,.23,0,.33-7.89.83-15.13,3.47-20.71,8a30.32,30.32,0,0,0-11,23.72,25.36,25.36,0,0,0,12.53,22.21c7,4.28,15.1,6.39,22.55,9.36,12.21,4.45,28.4,9.39,28.56,21.88a18.72,18.72,0,0,1-7.35,15.2c-4.6,3.75-11.27,6.18-19.21,6.18A32.74,32.74,0,0,1,111,171.16a5.36,5.36,0,0,0-7.51-2.5,5.63,5.63,0,0,0-1.34,8,42.56,42.56,0,0,0,31.07,20.05c0,.18-.17.31-.17.5v10.69a5.35,5.35,0,0,0,10.69,0V197.22c0-.12,0-.23,0-.33a39.48,39.48,0,0,0,20.71-8.19,30,30,0,0,0,11-23.55A25.65,25.65,0,0,0,163,142.77c-7-4.27-15.1-6.38-22.55-9.35-12.14-4.45-28.4-9.37-28.56-21.72a19,19,0,0,1,7.35-15.36c4.6-3.76,11.27-6,19.2-6a32.63,32.63,0,0,1,27.4,15.2,5.37,5.37,0,0,0,7.51,2.51,5.64,5.64,0,0,0,1.34-8A42.35,42.35,0,0,0,143.6,80.13c0-.18.17-.31.17-.5V68.94A5.34,5.34,0,0,0,138.42,63.6Z"/><path d="M138.43,276.85C62.1,276.85,0,214.75,0,138.43S62.1,0,138.43,0,276.85,62.1,276.85,138.43,214.75,276.85,138.43,276.85Zm0-267.25A129,129,0,0,0,9.6,138.43c0,71,57.79,128.82,128.83,128.82A129,129,0,0,0,267.25,138.43C267.25,67.39,209.46,9.6,138.43,9.6Z"/></g></g></svg>