<?xml version="1.0" encoding="utf-8"?>
<!-- Generator: Adobe Illustrator 23.0.3, SVG Export Plug-In . SVG Version: 6.00 Build 0)  -->
<svg version="1.1" id="Capa_1" xmlns="http://www.w3.org/2000/svg" xmlns:xlink="http://www.w3.org/1999/xlink" x="0px" y="0px"
	 viewBox="0 0 200 293.4" style="enable-background:new 0 0 200 293.4;" xml:space="preserve">
<style type="text/css">
	.st0{fill:#3B536D;}
</style>
<title>cumplimiento-ley</title>
<path class="st0" d="M196.4,0c-0.8,0.1-1.5,0.4-2,0.9L160,26L132,1.2c-1.3-1-3.1-1-4.4,0L99.9,25.8L72.1,1.2c-1.3-1-3.1-1-4.4,0
	L39.7,26L5.3,1C4.7,0.5,3.9,0.2,3.1,0.2C1.4,0.4,0,1.9,0,3.7v285c-0.3,4.7,2.3,5.4,5.3,3.9l34.4-25l28,24.9c1.3,1,3.1,1,4.4,0
	l27.8-24.7l27.8,24.6c1.3,1,3.1,1,4.4,0l28-24.9l34.4,25c1.3,1.3,3.4,1.3,4.7,0c1-1,1.2-2.5,0.6-3.8V4.8c0.7-1.8-0.2-3.8-2-4.5
	C197.3,0.1,196.8,0,196.4,0L196.4,0z M69.9,8.1l27.8,24.6c1.3,1,3.1,1,4.4,0l27.8-24.6l27.8,24.6c1.2,1,2.9,1,4.2,0.1L193,10.1
	v273.2l-31.3-22.8c-1.3-0.9-3-0.8-4.2,0.2l-27.7,24.6L102,260.7c-1.3-1-3.1-1-4.4,0l-27.7,24.7l-27.8-24.7c-0.8-0.7-1.8-1-2.8-0.8
	c-0.5,0.1-1,0.3-1.3,0.6L6.7,283.3V10.1L38,32.9c1.3,0.9,3,0.9,4.2-0.1L69.9,8.1z M99.9,93.5c-1.8,0-3.3,1.5-3.3,3.3v0v6.9
	c-11.6,1.4-20.3,11.4-20,23.1c0,7.5,3.3,12.7,7.7,15.9s9.5,4.9,14.1,7.1c5.1,2.4,10,4,13.1,6.3s5,4.8,5,10.6
	c0,10.5-7,16.6-16.6,16.6c-7.9,0-14.1-5.8-16.9-11.5c-0.7-1.7-2.6-2.6-4.4-1.9c-1.7,0.7-2.6,2.6-1.9,4.4c0.1,0.2,0.2,0.4,0.3,0.6
	l0,0c3.4,6.8,10.4,13.6,19.7,15v6.9c-0.1,1.8,1.3,3.4,3.1,3.5c1.8,0.1,3.4-1.3,3.5-3.1c0-0.1,0-0.2,0-0.4v-6.9
	c11.6-1.4,20.3-11.4,20-23.1c0-7.5-3.3-12.7-7.7-15.9s-9.5-4.9-14.1-7.1c-5.1-2.4-10-4.1-13.1-6.4s-5-4.7-5-10.5
	c0-10.5,7-16.6,16.6-16.6c7.9,0,14.1,5.7,17,11.4c1,1.6,3.1,2.1,4.6,1.1c1.4-0.9,1.9-2.6,1.4-4.1c-3.4-6.8-10.4-13.5-19.7-14.9v-6.9
	C103.2,95,101.7,93.5,99.9,93.5L99.9,93.5z"/>
</svg>
