<?xml version="1.0" encoding="utf-8"?>
<!-- Generator: Adobe Illustrator 23.0.3, SVG Export Plug-In . SVG Version: 6.00 Build 0)  -->
<svg version="1.1" id="Capa_1" xmlns="http://www.w3.org/2000/svg" xmlns:xlink="http://www.w3.org/1999/xlink" x="0px" y="0px"
	 viewBox="0 0 300 300" style="enable-background:new 0 0 300 300;" xml:space="preserve">
<style type="text/css">
	.st0{fill:#3B536D;}
</style>
<title>hipoteca-online</title>
<path class="st0" d="M149.7,0c-0.6,0.1-1.3,0.3-1.8,0.6L1.3,116.6c-2.4,1.7-0.8,6.3,2.1,6.2h34.1v143.2H3.4c-1.9,0-3.4,1.5-3.4,3.4
	v27.3c0.1,1.9,1.6,3.3,3.4,3.4h293.2c1.9-0.1,3.3-1.5,3.4-3.4v-27.3c-0.1-1.9-1.6-3.3-3.4-3.4h-27.3V122.7h27.3
	c2.9,0.1,4.5-4.5,2.1-6.2L152.1,0.6C151.4,0.2,150.5,0,149.7,0z M150,7.8l136.8,108.1H13.2L150,7.8z M150,51.1
	c-11.3,0-20.5,9.2-20.5,20.5s9.2,20.5,20.4,20.5s20.5-9.2,20.5-20.4c0,0,0,0,0,0C170.4,60.3,161.3,51.2,150,51.1z M150,58
	c7.5,0,13.6,6.1,13.6,13.6s-6.1,13.6-13.6,13.6c-7.5,0-13.6-6.1-13.6-13.6c0,0,0,0,0,0C136.4,64.1,142.4,58,150,58
	C150,58,150,58,150,58z M44.3,122.7h20.4v143.2H44.3V122.7z M71.6,122.7h163.6v143.2H71.6V122.7z M242.1,122.7h20.4v143.2h-20.4
	V122.7z M6.8,272.7h286.4v20.5H6.8V272.7z"/>
<path class="st0" d="M150,132.9c-2.4,0-4.4,2-4.4,4.4v9.1c-6.2,0.5-12.1,2.8-17,6.6c-5.8,4.8-9.1,11.9-9.1,19.5
	c-0.1,7.5,3.8,14.5,10.3,18.2c5.7,3.5,12.4,5.2,18.5,7.7c10,3.7,23.3,7.7,23.5,18c0.1,4.9-2.1,9.5-6,12.5c-3.8,3.1-9.3,5.1-15.8,5.1
	c-9.2-0.1-17.6-4.8-22.5-12.6c-1-2.2-3.6-3.2-5.8-2.2c-0.1,0.1-0.2,0.1-0.3,0.2c-2.1,1.4-2.7,4.3-1.2,6.4c0,0.1,0.1,0.1,0.1,0.2
	c5.6,9.1,14.9,15.1,25.5,16.5c0,0.1-0.1,0.3-0.1,0.4v8.8c0,2.4,2,4.4,4.4,4.4c2.4,0,4.4-2,4.4-4.4c0,0,0,0,0,0v-9
	c6.2-0.6,12.1-2.9,17-6.7c5.8-4.7,9.1-11.9,9.1-19.3c0.1-7.5-3.8-14.5-10.3-18.4c-5.7-3.5-12.4-5.2-18.5-7.7
	c-10-3.7-23.3-7.7-23.5-17.8c-0.1-4.9,2.1-9.6,6-12.6c3.8-3.1,9.3-4.9,15.8-4.9c9.1,0.1,17.6,4.8,22.5,12.5c1,2.2,3.6,3.2,5.8,2.2
	c0.1-0.1,0.2-0.1,0.3-0.2c2.1-1.4,2.6-4.3,1.2-6.4c0,0-0.1-0.1-0.1-0.1c-5.6-9.1-15-15.1-25.5-16.3c0-0.1,0.1-0.3,0.1-0.4v-8.8
	C154.4,135,152.5,133,150,132.9C150.1,132.9,150,132.9,150,132.9z"/>
</svg>
