<?xml version="1.0" encoding="utf-8"?>
<!-- Generator: Adobe Illustrator 23.0.3, SVG Export Plug-In . SVG Version: 6.00 Build 0)  -->
<svg version="1.1" id="Capa_1" xmlns="http://www.w3.org/2000/svg" xmlns:xlink="http://www.w3.org/1999/xlink" x="0px" y="0px"
	 viewBox="0 0 817.8 213.2" style="enable-background:new 0 0 817.8 213.2;" xml:space="preserve">
<style type="text/css">
	.st0{fill:#ACACAC;}
</style>
<title>logo-infotec</title>
<path class="st0" d="M817.8,155.2c-10.5,0-21,0.1-31.6-0.1c-19-0.4-37-13.9-43.3-32.4c-8.2-25.4,5.7-52.7,31.2-61
	c5.2-1.7,10.7-2.5,16.3-2.3c9.2,0.2,18.3-0.1,27.5-0.1v3c-0.5,0.9-1,1.7-1.3,2.6c-3.5,8.6-9.7,12.8-18.8,12.8c-3.2,0-6.4,0-9.7,0
	c-15.8,0.5-28.3,13.9-28.2,30.1c0.1,15.9,12.9,28.8,28.8,28.9c3.2,0,6.4,0,9.7,0c6,0.1,11.2,2.4,14.8,7.2c1.7,2.6,3.3,5.4,4.7,8.2
	L817.8,155.2z"/>
<path class="st0" d="M149.1,60.7c0,11.5,0,23.1,0,34.6c0,6.7-4.8,10.1-9.6,13c-4.1,2.6-8.6,1.9-12.6-0.7c-5.5-3.7-9.1-8.2-8.9-15.8
	c0.5-18.2,0.1-36.4,0.2-54.7c0-2.7-0.7-3.8-3.6-4.2c-20.6-3.1-38.3,3.4-54.4,15.8C38.7,65.2,30.7,88,31.7,114.2
	c0.6,13.8,5.5,26.6,13.7,37.9c6.1,8.5,5.3,16.8-2.3,23.8c-5.8,5.4-14.3,4.5-19.5-2.4C11.8,158,3.9,140.6,1.1,121
	C-2,99.3,1.3,78.5,11.5,59.5C25.5,33.7,45.7,14,74.3,4.5c18-6.1,37.4-6.1,55.4,0.1c5.1,1.7,9.8,5.6,14,9.3c4,3.5,5.7,8.4,5.5,14
	C149,38.9,149.1,49.8,149.1,60.7z"/>
<path class="st0" d="M64,152.7c0-10.9,0.2-21.8-0.1-32.7c-0.2-7.8,4.7-11.7,10.4-14.8c5.7-3.1,10.8-0.2,15.1,3.8
	c3.5,3,5.5,7.4,5.3,12c-0.4,16.1-0.1,32.2-0.1,48.3c0,2.6-0.3,5.2-0.4,7.8c-0.1,2.2,0.7,3.4,3.1,3.7c12.4,1.7,24.4,0.8,36-4
	c12.8-5.4,24-13.2,32.6-24c7.4-9.2,11.8-20.2,14.1-31.9c4.3-22.4,0.2-42.9-13.4-61.4c-6.5-8.8-0.3-23.3,10.6-24.8
	c4.4-0.6,8.8,1.2,11.5,4.8C201.4,55.8,210,74.3,212,95.1c2.6,27.9-3.8,53.5-21.7,75.7c-7.7,9.6-16.2,18.4-26.4,25.4
	c-11.8,8.1-24.6,13.7-38.8,15.8c-14.3,2.2-28.6,1.4-42.4-3.5c-7.2-2.6-13.2-6.9-16.7-13.9c-1.3-2.5-2-5.3-2.1-8.1
	C63.8,175.2,64,164,64,152.7L64,152.7z"/>
<path class="st0" d="M514.3,155.1c-27.2,0-48.7-21.3-48.7-47.9c0-27.5,24.4-48.5,49.4-47.9c26.5,0.7,48.4,22,48.2,48.4
	S541.2,155.2,514.3,155.1z M514.2,136.7c15.9,0.2,29-12.5,29.3-28.4c0-0.2,0-0.5,0-0.7c0.1-16.6-12.8-29.9-29.1-29.9
	c-16.2,0-29.2,13-29.2,29.7S497.8,136.7,514.2,136.7z"/>
<path class="st0" d="M277.2,154.8c0-18.4-1-36.5,0.3-54.5c1.5-21.1,20.9-38.7,42.3-40.9c23.4-2.3,45.1,11.3,52,33.2
	c1.5,4.7,2.2,9.6,2.3,14.6c0.3,15.2,0.1,30.5,0.1,45.7c-0.1,0.7-0.1,1.3-0.3,1.9c-1.6,0-3.1-0.1-4.6-0.4
	c-8.4-2.2-14.4-9.6-14.7-18.3c-0.1-9.4,0.1-18.8-0.1-28.2c-0.3-16.7-12.4-29.8-28-30.3c-16.2-0.5-29.7,12.2-30.1,28.4
	c0,0.1,0,0.3,0,0.4c-0.1,9.8,0.1,19.6-0.1,29.4C296.1,146.4,286.8,155.5,277.2,154.8z"/>
<path class="st0" d="M733.1,60c0.4,8.8-7.8,17.3-17.3,17.6c-3.8,0.2-7.7,0-11.5,0.1c-16,0.5-28.2,13.7-28.1,30.1
	c-0.1,15.9,12.7,28.9,28.6,29c0,0,0.1,0,0.1,0c4.9,0.1,10-0.1,14.8,0.9c7.8,1.6,13.3,9,13.6,17.2c-1.1,0.1-2.1,0.2-3.2,0.2
	c-8.8,0-17.6-0.1-26.4,0c-22.8,0.4-45.1-19.1-46.9-42.3c-2.1-26.5,14.8-49.3,40.2-52.5C708.8,58.7,721,60,733.1,60z"/>
<path class="st0" d="M553.8,61H650c1.8,7.1-7.1,17.8-16.7,18c-5.8,0.2-11.7,0.3-17.5,0c-3.4-0.2-4.2,1.1-4.1,4.3
	c0.1,22.3,0.1,44.6,0.1,66.9v4.3c-8.1,1.4-17.5-6.1-19.1-14.9c-0.4-2.4-0.6-4.9-0.6-7.4c-0.1-16.2,0-32.4,0-48.7v-4.4
	c-7.1,0-13.8,0.1-20.4,0C562,78.9,554.2,71.2,553.8,61z"/>
<path class="st0" d="M384.9,155.1c0-18.7-1.6-37.1,0.4-55.2c2.6-24.1,23.6-40.6,47.8-40.5h27.8c1.1,8.7-7.4,17.8-16.7,18.2
	c-3.7,0.2-7.4,0-11.1,0.1c-16.4,0.4-28.8,12.8-28.9,29.2c-0.1,9.4,0.1,18.8,0,28.2c0,9-5.9,16.9-14.6,19.4
	C388,154.8,386.4,155,384.9,155.1z"/>
<path class="st0" d="M246.4,59.7c9.1-0.8,19.2,7.8,19.3,17.5c0.3,25.8,0.1,51.5,0.1,77.7c-6.8,0.4-11.8-2.6-15.2-7.6
	c-2.2-3.2-4.1-7.4-4.1-11.2c-0.4-25-0.2-50.1-0.2-75.1C246.2,60.6,246.3,60.1,246.4,59.7z"/>
<path class="st0" d="M442.6,98c5.3,0,10.6,0.1,15.9,0c2.4,0,2.9,0.8,2.5,3.1c-1.7,8.7-9.2,15-18,15.2c-5.6,0.1-11.1,0.1-16.7,0
	s-9.2-3.7-9.2-8.9c0-5.6,3.6-9.3,9.2-9.4C431.7,97.9,437.1,98,442.6,98L442.6,98z"/>
<path class="st0" d="M733.1,98.1c0.2,9.2-7.4,17.6-16.5,18.2c-6.4,0.4-12.9,0.2-19.3,0c-4.5-0.2-8.1-4-8.1-8.5
	c-0.2-5.1,2.9-9.5,7.7-9.6C708.9,97.9,720.9,98.1,733.1,98.1z"/>
</svg>
