<?xml version="1.0" encoding="utf-8"?>
<!-- Generator: Adobe Illustrator 23.0.3, SVG Export Plug-In . SVG Version: 6.00 Build 0)  -->
<svg version="1.1" id="Capa_1" xmlns="http://www.w3.org/2000/svg" xmlns:xlink="http://www.w3.org/1999/xlink" x="0px" y="0px"
	 viewBox="0 0 232.2 290.1" style="enable-background:new 0 0 232.2 290.1;" xml:space="preserve">
<style type="text/css">
	.st0{fill:#ACACAC;}
</style>
<title>logo-cide</title>
<path class="st0" d="M210.5,56.3h-6.3c8.5,22.6,7.8,45-0.2,67.6h6.7v56.9H21.9v-56.6h7c-4.2-10.8-6.4-22.2-6.6-33.8
	c0-11.6,2-23,5.8-33.9h-6.4V0h188.8V56.3z M39.9,141.8c0,0.3-0.1,0.5-0.1,0.8c0,6.5,0,13.1,0,19.6c0,0.8,0.3,1,1,1
	c3.4,0,6.9,0,10.3,0c21.6,0,43.2,0.1,64.8,0c3.9,0,7.8-0.3,11.6-1c15.9-2.5,30.5-10.2,41.6-21.9c15.3-16.1,22.1-35.2,20.4-57.3
	c-0.7-8.9-3.1-17.6-7.1-25.6c-0.3-0.7-1-1.1-1.7-1.1c-8,0-16.1,0-24.1,0c-0.4,0-0.7,0-1.3,0.1c0.5,0.6,0.8,1,1.1,1.4
	c9.2,11.6,13,24.8,11,39.5c-1.5,11.9-7.2,22.9-16.1,30.9c-9.1,8.6-21.1,13.5-33.6,13.5c-16.2,0.2-32.4,0-48.6,0H40.9
	C40.5,141.7,40.2,141.8,39.9,141.8z M77.4,124.3c0-0.2,0.1-0.2,0-0.3c-0.2-0.3-0.4-0.5-0.6-0.8c-10.5-13-14.2-27.7-10.7-44
	c5-23.5,25.8-40.3,49.8-40.4c25.2-0.1,50.4,0,75.5,0.1c1.5,0,1.5,0,1.5-1.5V19.2c0-1.6,0-1.6-1.6-1.6H114c-5.6,0-11.1,0.7-16.4,2.2
	c-12.4,3.5-23.7,10.2-32.6,19.6c-15.5,16.2-22.8,35.5-20.4,58c1,9.1,3.6,17.9,7.9,25.9c0.3,0.7,1,1.1,1.7,1c7.5,0,14.9,0,22.4,0
	C76.8,124.3,77.1,124.3,77.4,124.3L77.4,124.3z M149.4,89.6c0-18.1-14.8-33.1-32.7-33.1c-18.4,0-33.4,14.7-33.4,32.8
	c-0.1,18.3,14.7,33.1,32.9,33.2C134.5,122.6,149.3,107.9,149.4,89.6L149.4,89.6z M192.9,144.4c-5.3,7-11.5,13.3-18.3,18.7h18.3
	V144.4z M55.6,17.9l-0.2-0.2c-0.3,0-0.6,0-0.8,0c-4.6,0-9.1,0-13.7,0c-0.9,0-1.2,0.2-1.2,1.2c0.1,5,0,10,0.1,15
	c0,0.4,0.1,0.7,0.1,1.1C44.5,28.6,49.7,22.9,55.6,17.9z"/>
<path class="st0" d="M111.5,216.8h1.2c11.3,0,22.6-0.1,33.9,0c5.6-0.1,11.2,1.2,16.3,3.7c6.9,3.5,12,9.6,14.2,17
	c3.1,9.3,2.8,19.4-0.9,28.5c-4.5,11.4-13.2,18.1-24.9,21c-3.6,0.8-7.2,1.2-10.9,1.2c-9.2,0-18.4,0-27.5,0c-0.5,0-0.9,0-1.4-0.1
	L111.5,216.8z M127.2,222.8v59.3c0.2,0,0.3,0.1,0.5,0.1c4.2-0.1,8.4,0.1,12.6-0.2c8.7-0.7,15-5,18.4-13.2c1.6-4.1,2.6-8.4,2.8-12.7
	c0.6-5.5,0.2-11.1-1-16.6c-2.2-8.7-7.4-14.3-16.4-16.1C138.5,222.9,132.9,222.7,127.2,222.8z"/>
<path class="st0" d="M232.2,288.2c-0.2,0-0.6,0-1,0c-12.5,0-25,0-37.4,0c-1,0-1.3-0.3-1.3-1.3c0-23,0-46,0-69.1c0-0.4,0-0.7,0-1.1
	h39.7v8.8c-7.9-1.1-15.9-1.6-23.9-1.4v22.6c7.9-0.1,15.7,0.4,23.7-1c-0.8,3-0.7,6.1,0.1,9c-8-1.3-15.9-0.9-23.8-1
	c0,0.4-0.1,0.8-0.1,1.2c0,8.2,0,16.3,0,24.5c0,0.9,0.3,1.2,1.2,1.2c7.5-0.1,15-0.6,22.5-1.4c0.1,0,0.2,0,0.2,0L232.2,288.2z"/>
<path class="st0" d="M63.2,220c-0.7,3.4-1.4,6.7-2.2,10c-0.1,0.3-0.4,0.8-0.6,0.7c-0.5,0-1-0.2-1.4-0.5c-1.9-1.7-3.5-3.8-5.5-5.2
	c-9.6-7-23.8-4.5-30.6,6.7c-2.6,4.4-4.4,9.4-5,14.5c-1.1,6.8-0.6,13.8,1.4,20.4c2,6.2,5.4,11.4,11.3,14.5c7.6,4,15.4,3.8,23,0.1
	c2.4-1.3,4.6-2.7,6.8-4.3c0.8-0.6,1.4-0.8,2.2,0c-0.7,2.8-1.4,5.7-2.2,8.5c-0.1,0.3-0.5,0.6-0.9,0.7c-4.3,2.1-8.9,3.3-13.6,3.8
	c-7.2,0.9-14.5,0.3-21.3-1.9c-10-3.3-17.7-9.4-21.9-19.2c-2.3-5.7-3.1-11.8-2.5-17.8c0.3-5.1,1.5-10.1,3.6-14.7
	c3.9-8.6,11.2-15.2,20.2-18.2c12.8-4.4,25.4-4.1,37.9,1.4C62.3,219.5,62.8,219.8,63.2,220z"/>
<path class="st0" d="M77.1,217h15.5v71.4H77.1V217z"/>
<path class="st0" d="M133.4,90.1c0,9.6-7.8,17.3-17.3,17.3c-9.6,0-17.3-7.8-17.3-17.3c0-9.6,7.7-17.3,17.3-17.3
	c9.5-0.1,17.3,7.6,17.3,17.1C133.5,90,133.5,90,133.4,90.1z"/>
</svg>
