<?xml version="1.0" encoding="utf-8"?>
<!-- Generator: Adobe Illustrator 23.0.3, SVG Export Plug-In . SVG Version: 6.00 Build 0)  -->
<svg version="1.1" id="Capa_1" xmlns="http://www.w3.org/2000/svg" xmlns:xlink="http://www.w3.org/1999/xlink" x="0px" y="0px"
	 viewBox="0 0 300.6 295" style="enable-background:new 0 0 300.6 295;" xml:space="preserve">
<style type="text/css">
	.st0{fill:#ACACAC;}
</style>
<title>logo-inaoe</title>
<path class="st0" d="M300.6,154l-6.5,3.4l-15.2-24.6c2.2-0.9,4.4-1.8,6.5-2.6c0.2-0.1,0.7,0.4,0.9,0.6c3,4.8,6,9.7,9,14.6
	c1.5,2.4,3,4.9,4.5,7.3c0.2,0.3,0.5,0.6,0.7,0.9L300.6,154z"/>
<path class="st0" d="M95.1,0l6.2,3.5L86.1,28.2L80,23.9c1.6-2.6,3.2-5.2,4.8-7.8C88,11,91.1,5.9,94.2,0.9c0.2-0.3,0.3-0.6,0.4-0.9
	L95.1,0z"/>
<path class="st0" d="M245.3,280.6v14.1c-0.2,0-0.5,0.1-0.7,0.1c-6.2,0-12.4,0.1-18.6-0.1c-5.4-0.2-10.2-2-13.7-6.6
	c-2.5-3.3-3.8-7.4-3.9-11.5c-0.2-6.4-0.2-12.8-0.2-19.2c0-1.3,0-2.6,0-4c0.3-0.1,0.6-0.1,0.9-0.1c6.2,0,12.4,0,18.6,0.2
	c5.1,0.2,9.7,1.9,13.1,5.9c2.5,3.1,4,6.8,4.3,10.8c0.3,2.1,0.3,4.2,0.4,6.4c0,0.5,0,0.9-0.7,0.9c-3.6,0-7.2,0-10.8,0h-13.3
	c-0.1,2.8,2.7,6,5.9,6.2c2,0.2,4,0.1,6,0.2c0.6,0,0.9-0.2,0.8-0.8s0-1.5,0-2.3L245.3,280.6z M233.4,271.9c-0.2-0.8-0.3-1.4-0.5-2
	c-1-3.4-3-5-6.4-5.3c-1.4-0.1-2.8-0.1-4.2-0.1c-2.1,0-2.1,0-2.1,2.1v5.3L233.4,271.9z"/>
<path class="st0" d="M163.8,253.4c0.3,0,0.6-0.1,0.9-0.1c6.2,0,12.3-0.1,18.5,0.2c6.5,0.3,11.9,2.8,15.1,8.8c1.4,2.8,2.3,5.9,2.5,9
	c0.2,1.9,0.2,3.9,0.2,5.8c0.1,5.5,0.1,11,0.1,16.5c0,0.9-0.2,1.3-1.2,1.3c-6-0.1-12,0-18-0.2c-5-0.1-9.5-1.7-12.9-5.6
	c-2.4-2.8-3.9-6.2-4.4-9.8c-0.3-2.1-0.5-4.3-0.5-6.5c-0.1-6.1-0.1-12.1-0.2-18.2L163.8,253.4z M176,264.7c0,3.6-0.1,7.3,0,11
	c0.1,1.2,0.3,2.3,0.8,3.4c0.7,2.4,2.8,4.2,5.4,4.5c2,0.2,4.1,0.2,6.1,0.1c0.2,0,0.7-0.4,0.7-0.7c-0.1-3.9,0-7.9-0.4-11.8
	c-0.3-3.6-2.6-6.1-5.6-6.5C180.7,264.6,178.3,264.6,176,264.7z"/>
<path class="st0" d="M156.4,253.4v41.4h-11.9v-17.4c-0.4,0-0.7-0.1-0.9-0.1c-3.8,0-7.6,0-11.3,0c-0.8,0-1.1,0.2-1,1.1
	c0,5,0,10,0,15.1v1.4h-11.8c0-0.3-0.1-0.6-0.1-0.8c0-6.5,0-13,0-19.6c0-3.2,0.5-6.4,1.6-9.5c2.3-6.5,7.1-10.1,13.9-11.1
	c1.7-0.2,3.4-0.4,5.1-0.3c5.1,0,10.2,0,15.3,0L156.4,253.4z M144.4,264.6c-2.2,0-4.3-0.1-6.4,0c-3.8,0.3-6.6,3.5-6.4,7.3h12.8V264.6
	z"/>
<path class="st0" d="M100,294.5v-1.3c0-6.7,0-13.3-0.1-20c-0.1-1.4-0.3-2.8-0.8-4.2c-0.8-2.7-3.2-4.6-6-4.7c-2-0.1-4.1,0-6.3,0v30.2
	H75v-41.3c0.2-0.1,0.3-0.1,0.5-0.1c6.3,0,12.7-0.2,19,0.1c9.3,0.4,15.3,5.9,16.9,15.1c0.4,2.3,0.6,4.6,0.6,6.9
	c0.1,6.1,0,12.2,0,18.4c0,0.3,0,0.6-0.1,0.9H100z"/>
<path class="st0" d="M52.2,68.9l6.4,3.8L6.5,157L0,153.6L52.2,68.9z"/>
<path class="st0" d="M258,84.9l-6.7,3.3l-52-84.4l6.5-3.6C223.2,28.5,240.6,56.8,258,84.9z"/>
<path class="st0" d="M245.1,246.2H140.7c0.1-2.3,0.2-4.6,0.3-6.9c0.5,0,0.9-0.1,1.2-0.1c33.9,0,67.8,0,101.6,0c1,0,1.3,0.3,1.3,1.3
	C245.1,242.3,245.1,244.2,245.1,246.2z"/>
<path class="st0" d="M141.5,232.4c0.2-1.9,0.4-3.7,0.6-5.5c0-0.2,0.3-0.4,0.5-0.4c0.3,0,0.7,0,1,0c32.8,0,65.5,0,98.3,0
	c1.2,0,1.8,0.2,1.9,1.5s0.5,2.9,0.7,4.4L141.5,232.4z"/>
<path class="st0" d="M244.9,91.1l-5.9,2.5l-50.6-82.1l5-3.8C210.6,35.5,227.7,63.2,244.9,91.1z"/>
<path class="st0" d="M19,161.9l-6-2.1l51.5-83.5l5.2,3.5C52.8,107.2,35.9,134.6,19,161.9z"/>
<path class="st0" d="M25,163.7l49.6-80.4l5.2,3.9l-4.6,7.4c-14.3,23.2-28.7,46.5-43,69.8c-0.4,0.6-0.7,0.8-1.4,0.6
	C29,164.5,27.1,164.1,25,163.7z"/>
<path class="st0" d="M233.7,95.7l-6.3,2.3c-16.1-26-32.1-51.9-48-77.8l4.7-4.8L233.7,95.7z"/>
<path class="st0" d="M142.9,220.9c0.3-1.9,0.6-3.7,0.9-5.5c0-0.2,0.4-0.5,0.7-0.6c0.3-0.1,0.6-0.1,0.9,0c31.2,0,62.3,0,93.5,0
	c1,0,1.4,0.2,1.7,1.2c0.4,1.6,1,3.2,1.6,4.9L142.9,220.9z"/>
<path class="st0" d="M85.1,91.4l4.6,4l-6.1,9.9c-12.5,20.3-25,40.5-37.5,60.8c-0.3,0.7-1,1-1.8,0.9c-1.8-0.2-3.5-0.3-5.5-0.5
	C54.2,141.3,69.6,116.5,85.1,91.4z"/>
<path class="st0" d="M174.8,25c15.5,25.1,30.8,50,46.3,75c-1.9,0.5-3.8,1.1-5.6,1.5c-0.2,0.1-0.7-0.4-0.9-0.8
	c-2.9-4.6-5.7-9.2-8.5-13.7c-11.4-18.5-22.9-37-34.3-55.5c-0.7-0.8-0.6-2,0.1-2.8C172.9,27.7,173.7,26.5,174.8,25z"/>
<path class="st0" d="M145,208.6c0.4-1.8,0.8-3.4,1.2-4.9c0.2-0.4,0.6-0.6,1.1-0.6c3.2-0.1,6.4,0,9.6,0c25.5,0,51.1,0,76.6,0
	c0.8-0.1,1.5,0.3,1.8,1.1c0.7,1.5,1.5,2.9,2.2,4.6L145,208.6z"/>
<path class="st0" d="M67.4,253.2v41.3H55.5v-1c0-8.7-0.1-17.4,0-26.1c0.1-4.8,1.6-9.2,5.6-12.3C62.9,253.8,65.1,253.1,67.4,253.2z"
	/>
<path class="st0" d="M231.5,197.3h-83.6l1.9-5.2h1.1c25.2,0,50.5,0,75.7,0c0.8-0.1,1.6,0.3,2,1C229.4,194.5,230.4,195.8,231.5,197.3
	z"/>
<path class="st0" d="M52.1,167l41.8-67.8l3.8,4.1l-8.4,13.6c-10.1,16.3-20.1,32.5-30.1,48.8c-0.3,0.5-0.8,0.8-1.3,0.9
	C56.1,166.8,54.3,166.9,52.1,167z"/>
<path class="st0" d="M209.3,103.3c-1.8,0.3-3.4,0.7-5.1,0.9c-0.5-0.1-0.9-0.3-1.1-0.7c-4.2-6.7-8.4-13.5-12.5-20.3
	c-8.5-13.7-16.9-27.4-25.4-41.1c-0.4-0.5-0.5-1.3-0.1-1.9c0.8-1.4,1.6-2.9,2.4-4.6L209.3,103.3z"/>
<path class="st0" d="M101.7,108.3c0.3,0.3,0.4,0.5,0.5,0.6c2.8,4.1,2.8,4.1,0.2,8.2c-9.6,15.5-19.1,30.9-28.7,46.4
	c-0.3,0.5-0.7,0.8-1.2,0.9c-2,0.5-3.9,0.8-6.2,1.3L101.7,108.3z"/>
<path class="st0" d="M161.4,47.8l35.5,57.4c-2.1,0.3-4.1,0.1-6.1-0.4c-0.3-0.1-0.5-0.6-0.7-0.9c-8.2-13.2-16.3-26.4-24.5-39.7
	c-1.9-3.2-3.9-6.3-5.8-9.5c-0.2-0.4-0.3-0.8-0.3-1.3C160.1,51.7,160.7,49.9,161.4,47.8z"/>
<path class="st0" d="M197.8,127.4c-1.9-0.6-3.9-1.1-5.8-1.8c-0.3-0.2-0.6-0.5-0.8-0.8c-11.4-18.5-22.9-37.1-34.3-55.7
	c-0.3-0.4-0.4-0.8-0.4-1.2c0.2-2,0.6-4,0.9-5.9l0.3-0.1L198,127L197.8,127.4z"/>
<path class="st0" d="M81.1,162l40.3-65.3h0.3c0.4,1.9,0.9,3.8,1.3,5.7c0.1,0.3-0.2,0.7-0.4,1c-9.3,15.2-18.7,30.3-28.1,45.5
	c-2.1,3.4-4.2,6.8-6.3,10.2c-0.3,0.5-0.8,0.9-1.3,1.1c-1.9,0.8-3.8,1.4-5.7,2.1L81.1,162z"/>
<path class="st0" d="M152.3,186.5c0.2-0.3,0.3-0.6,0.4-0.9c2.3-4,2.3-4,6.8-4c19.2,0,38.3,0,57.5,0c0.8-0.1,1.7,0.3,2.2,0.9
	c1.1,1.3,2.4,2.5,3.7,3.9L152.3,186.5z"/>
<path class="st0" d="M131.7,175.9c1.5-1.3,3-2.6,4.6-3.8c0.3-0.1,0.7-0.2,1-0.1h69c0.3,0,0.7,0,0.9,0.1c1.8,1.2,3.5,2.5,5.1,4H132
	L131.7,175.9z"/>
<path class="st0" d="M117.1,160.2c22.1-7.7,44.2-7.6,66.2,0H117.1z"/>
<path class="st0" d="M190.2,146.9c-17.6-13.8-28.8-31.6-33.1-53.6l0.3-0.2l33.1,53.6L190.2,146.9z"/>
<path class="st0" d="M110.5,146.3l33-53.6c-4,22.2-15.3,39.8-32.7,53.8L110.5,146.3z"/>
<path class="st0" d="M180.4,124.1l-7.3-11.8c-5.5-8.9-11-17.9-16.5-26.8c-0.5-0.8-0.7-1.6-0.8-2.5c-0.1-2.4,0-4.8,0-7.4
	c0.3,0.3,0.4,0.5,0.6,0.8c8.6,13.9,17.2,27.8,25.8,41.7c0.4,0.5,0.5,1.2,0.1,1.8C181.6,121.2,181,122.6,180.4,124.1z"/>
<path class="st0" d="M94.8,156.3l11.8-19.1c4.8-7.7,9.5-15.4,14.3-23.2c0.3-0.6,0.9-1,1.6-1.1c1.6-0.2,3.1-0.4,4.9-0.7
	c-0.2,0.4-0.4,0.7-0.6,1c-7.8,12.6-15.6,25.2-23.4,37.8c-0.4,0.6-0.9,1.1-1.5,1.5c-2.3,1.4-4.6,2.6-6.9,3.9L94.8,156.3z"/>
<path class="st0" d="M143.1,163.7h5c14.4,0,28.8,0,43.1,0c0.6,0,1.3,0.1,1.9,0.4c2.4,1.2,4.7,2.5,7,3.9c-0.2,0-0.5,0.1-0.8,0.1
	c-17.2,0-34.4,0-51.6,0c-0.6,0-1.1-0.3-1.4-0.7C145.2,166.3,144.2,165.1,143.1,163.7z"/>
<path class="st0" d="M85.9,239.3c-0.3,2.4-0.6,4.6-0.9,6.9H55.5v-6.9H85.9z"/>
<path class="st0" d="M105.9,44.8l-4.8-4.6l15.6-25.3l4.7,4.7L105.9,44.8z"/>
<path class="st0" d="M275.9,164.2c-2.2,0.5-4.2,0.8-6.1,1.3c-0.8,0.2-0.9-0.3-1.1-0.7c-3.9-6.3-7.7-12.5-11.6-18.8l-3.4-5.6
	c2.2-0.5,4.2-1.1,6.3-1.5c0.2,0,0.6,0.4,0.8,0.7c2.9,4.7,5.8,9.3,8.7,14c2,3.1,3.9,6.3,5.8,9.4C275.4,163.4,275.6,163.7,275.9,164.2
	z"/>
<path class="st0" d="M58.3,221.1c0.7-2,1.2-3.8,1.9-5.6c0.2-0.4,0.6-0.6,1.1-0.6c3.2-0.1,6.3,0,9.5,0h20.8c-0.6,2-1.2,3.9-1.7,5.8
	c-0.1,0.2-0.4,0.3-0.6,0.4c-0.3,0-0.5,0-0.8,0L58.3,221.1L58.3,221.1z"/>
<path class="st0" d="M91.8,32.2l15.5-25.1l5,3.8L96.6,36.2L91.8,32.2z"/>
<path class="st0" d="M266.1,137c1.9-0.6,3.7-1.2,5.5-1.8c0.7-0.2,0.9,0.2,1.2,0.6l8.5,13.8l6.5,10.4c-2,0.7-3.8,1.4-5.6,2
	c-0.2,0.1-0.7-0.4-0.9-0.7c-3.5-5.7-7-11.3-10.5-17L266.1,137z"/>
<path class="st0" d="M56.1,232.6l1-5.9h31.2c-0.4,1.9-0.7,3.7-1.2,5.5c0,0.2-0.7,0.4-1,0.4c-7,0-13.9,0-20.9,0L56.1,232.6z"/>
<path class="st0" d="M62.9,208.5c1-1.9,1.8-3.5,2.7-5.2c0.2-0.3,0.5-0.5,0.8-0.5c9.8,0,19.6,0,29.6,0c-0.7,1.9-1.4,3.6-2.2,5.3
	c-0.1,0.2-0.7,0.3-1,0.3c-5.3,0-10.6,0-15.8,0L62.9,208.5z"/>
<path class="st0" d="M126.1,24.9l3.8,5.2l-15.1,24.5c-1.3-1.5-2.6-2.9-3.8-4.4c-0.2-0.2,0.1-0.8,0.3-1.1c4-6.4,7.9-12.9,11.9-19.3
	L126.1,24.9z"/>
<path class="st0" d="M240.4,142.7c2.1-0.3,3.9-0.7,5.8-0.9c0.3,0,0.8,0.4,1,0.7c4,6.4,8,12.8,11.9,19.2l3.1,5c-2.1,0.1-4,0.3-6,0.5
	c-0.7,0.1-1-0.3-1.2-0.8l-12.3-20C241.9,145.2,241.2,144,240.4,142.7z"/>
<path class="st0" d="M69.3,197.3c1.1-1.6,2.2-3.1,3.3-4.6c0.2-0.2,0.5-0.4,0.8-0.4c9.3,0,18.6,0,27.9,0c13.9,0,0.1,0,0.2,0.1
	c-0.9,1.6-1.7,3.2-2.6,4.8c-0.1,0.2-0.4,0.2-0.7,0.2H69.6C69.6,197.5,69.6,197.5,69.3,197.3z"/>
<path class="st0" d="M121.9,64.2c-1.1-1.5-2-2.9-3-4.3c-0.2-0.3-0.2-0.7-0.1-1.1c4.7-7.7,9.5-15.5,14.3-23.2c0,0,0.1-0.1,0.3-0.2
	c0.9,1.7,1.8,3.4,2.6,5.1c0.1,0.3,0.1,0.5-0.1,0.8C131.3,49,126.7,56.5,121.9,64.2z"/>
<path class="st0" d="M227.6,143.6c1.9-0.1,3.7-0.3,5.5-0.3c0.5,0.1,0.9,0.4,1.1,0.8c4.2,6.7,8.4,13.5,12.5,20.3l1.7,2.7
	c-1.1,0-2.1-0.1-3.1,0c-2.6,0.3-4-1-5.3-3.2c-3.8-6.5-7.8-12.8-11.8-19.2C228.1,144.4,227.9,144.1,227.6,143.6z"/>
<path class="st0" d="M108.7,181.6c-1.2,1.6-2.3,3.1-3.4,4.6c-0.2,0.2-0.5,0.3-0.8,0.2c-8.9,0-17.8,0-26.7,0c-0.1,0-0.3-0.1-0.4-0.1
	c1.6-1.6,3-3.1,4.6-4.6c0.2-0.2,0.5-0.2,0.8-0.2h25.4C108.3,181.6,108.5,181.6,108.7,181.6z"/>
<path class="st0" d="M69.1,41.8l6.1,4.3l-9.5,15.4l-6.2-4L69.1,41.8z"/>
<path class="st0" d="M258.2,99.2l6.8-3c3.2,5.2,6.4,10.3,9.6,15.6c-2.2,0.9-4.4,1.8-6.5,2.6c-0.3,0-0.5-0.1-0.7-0.3
	C264.3,109.2,261.3,104.2,258.2,99.2z"/>
<path class="st0" d="M139.2,47.7c0.7,2,1.4,4,2,5.9c0,0.3,0,0.6-0.2,0.8c-4.3,6.9-8.5,13.9-12.8,20.8c-0.1,0.1-0.2,0.2-0.2,0.2
	c-0.9-1.7-1.7-3.4-2.6-5c-0.1-0.2,0.1-0.6,0.2-0.8c4.4-7.1,8.8-14.3,13.2-21.4C138.9,48,139,47.8,139.2,47.7z"/>
<path class="st0" d="M234.2,166c-2.2-0.4-4.3-0.9-6.3-1.3c-0.3-0.1-0.6-0.3-0.7-0.6c-4.3-6.9-8.5-13.8-12.8-20.7
	c-0.1-0.1-0.1-0.3-0.1-0.4c2,0.1,3.9,0.2,5.8,0.4c0.3,0.1,0.6,0.3,0.7,0.5c4.5,7.2,8.9,14.4,13.3,21.6
	C234.2,165.7,234.2,165.8,234.2,166z"/>
<path class="st0" d="M107.4,246.2c0.3-2.4,0.6-4.7,0.9-7h18.9c-0.2,2.2-0.3,4.3-0.5,6.4c0,0.2-0.7,0.6-1,0.6c-4.8,0-9.7,0-14.5,0
	L107.4,246.2z"/>
<path class="st0" d="M249.3,121c-2.1,0.6-4.1,1.2-6,1.7c-0.3,0-0.6-0.1-0.8-0.4c-2.9-4.6-5.7-9.1-8.6-13.8l6.3-2.2L249.3,121z"/>
<path class="st0" d="M86.2,76.8l-5.1-4l9.1-14.7c1.6,1.4,3,2.7,4.5,4c0.2,0.3,0.2,0.6,0.1,0.9C91.9,67.6,89.1,72.2,86.2,76.8z"/>
<path class="st0" d="M80.6,50.4l4.9,3.9l-9.2,14.9l-5.1-3.6L80.6,50.4z"/>
<path class="st0" d="M205.7,156.6c-2.6-1.5-5.1-2.9-7.7-4.4c-0.2-0.2-0.4-0.3-0.5-0.6c-4.2-6.9-8.5-13.7-12.7-20.6
	c0-0.1-0.1-0.2-0.1-0.2c1.6,1.3,3.2,2.5,4.9,3.7c0.8,0.6,1.6,1.1,2.5,1.6c1.4,0.6,2.5,1.7,3.1,3c3.4,5.5,6.8,11,10.2,16.6
	c0.1,0.2,0.2,0.5,0.4,0.7L205.7,156.6z"/>
<path class="st0" d="M255,119.2l-9.2-14.9l5.9-2.4c3.1,5,6.2,10.1,9.4,15.2L255,119.2z"/>
<path class="st0" d="M131.8,105.2c0.8-3.4,1.1-6.8,1.1-10.2c0-0.3,0.1-0.6,0.3-0.8c3.8-6.1,7.6-12.3,11.4-18.4
	c0.1-0.1,0.2-0.2,0.3-0.3c0,2.9,0,5.7,0,8.5c0,0.3-0.2,0.6-0.3,0.8c-4.2,6.7-8.3,13.5-12.5,20.2C132,105,131.9,105.1,131.8,105.2z"
	/>
<path class="st0" d="M109.2,232.6c0.4-2.1,0.8-4,1.1-5.9h18.4c-0.2,1.9-0.4,3.7-0.7,5.5c0,0.2-0.6,0.4-1,0.4c-3.9,0-7.8,0-11.7,0
	L109.2,232.6z"/>
<path class="st0" d="M131,215.1c-0.4,2-0.7,3.9-1.1,6h-18.1c0.5-2,1-3.9,1.5-5.8c0-0.1,0.4-0.3,0.6-0.3c5.6,0,11.1,0,16.7,0
	C130.7,215,130.9,215,131,215.1z"/>
<path class="st0" d="M118.2,172.2c-1.6,1.4-3,2.8-4.5,4.1c-0.3,0.1-0.5,0.2-0.8,0.2H88.7c-0.1,0-0.2,0-0.7-0.1
	c2-1.5,3.8-2.8,5.6-4.1c0.2-0.1,0.5-0.1,0.7-0.1h23.1C117.7,172.1,117.8,172.1,118.2,172.2z"/>
<path class="st0" d="M134.4,163.6c-2.8,1.1-5.8,2.3-8.6,3.6c-1.1,0.5-2.3,0.8-3.6,0.8c-6.9,0-13.7,0-20.6,0h-1.2l-0.1-0.3
	c2-1.1,4.1-2.1,6.1-3.2c1.3-0.7,2.7-1,4.1-0.9c7.6,0,15.2,0,22.9,0L134.4,163.6z"/>
<path class="st0" d="M132.2,87.9c-0.6-2.1-1.1-4-1.6-5.8c0-0.3,0.1-0.6,0.2-0.8c4-6.5,8-13.1,12.1-19.6c0.1-0.1,0.1-0.2,0.4-0.2
	c0.3,2.1,0.7,4.2,1,6.3c0,0.3-0.1,0.5-0.3,0.7c-3.9,6.3-7.7,12.6-11.6,18.9C132.4,87.5,132.3,87.7,132.2,87.9z"/>
<path class="st0" d="M200.8,140.2c2,0.5,4,1,5.9,1.5c0.3,0.1,0.5,0.3,0.7,0.6c4,6.5,8,13,12,19.5c0.1,0.2,0.1,0.4,0.2,0.5
	c-1.6-0.6-3-1.2-4.5-1.6c-1.5-0.4-2.7-1.4-3.4-2.8c-3.4-5.6-6.9-11.2-10.4-16.8C201.2,140.9,201,140.6,200.8,140.2z"/>
<path class="st0" d="M132.4,208.5h-17.3c0.6-1.9,1.2-3.6,1.8-5.3c0.1-0.2,0.4-0.3,0.6-0.3c5.4,0,10.8,0,16.4,0
	C133.4,204.8,132.9,206.6,132.4,208.5z"/>
<path class="st0" d="M236.1,124.5c-2,0.4-3.7,0.8-5.5,1.1c-0.4,0-0.8-0.2-1-0.4c-2.7-4.3-5.3-8.6-8-13c0.2-0.1,0.4-0.2,0.6-0.3
	l2.9-0.8c2.4-0.7,2.4-0.7,3.7,1.4L236.1,124.5z"/>
<path class="st0" d="M95.8,84.9c-1.4-1.2-2.7-2.4-4-3.6c-0.2-0.2-0.3-0.6-0.2-0.9c2.7-4.4,5.4-8.9,8.2-13.3c0,0,0.1-0.1,0.2-0.1
	c1.3,1.3,2.7,2.6,4,3.9c0.1,0.1,0.1,0.6-0.1,0.8C101.2,76.2,98.5,80.5,95.8,84.9z"/>
<path class="st0" d="M137.5,192.3c-0.6,1.7-1.2,3.2-1.9,4.8c-0.1,0.2-0.4,0.4-0.7,0.4c-5.2,0-10.4,0-15.6,0c-0.1,0-0.1-0.1-0.3-0.2
	c0.7-1.5,1.4-3.1,2.1-4.6c0.2-0.2,0.4-0.3,0.6-0.3L137.5,192.3z"/>
<path class="st0" d="M108.5,76c1,1.3,2.1,2.5,3.1,3.9c0.2,0.3,0.2,0.7,0,1c-2.6,4.2-5.1,8.3-7.8,12.6c-1.2-1.3-2.3-2.6-3.4-3.8
	c-0.1-0.2-0.1-0.5,0-0.8c2.6-4.3,5.2-8.6,7.9-12.8C112.3,69.7,108.3,76.1,108.5,76z"/>
<path class="st0" d="M223.6,126.8c-1.8,0.2-3.6,0.4-5.4,0.6c-0.2,0-0.5-0.2-0.6-0.5c-2.5-4.1-5.1-8.2-7.6-12.2
	c-0.1-0.1-0.1-0.2-0.1-0.3c1.7-0.3,3.4-0.6,5.1-0.8c0.3,0,0.6,0.1,0.8,0.3c2.6,4.2,5.2,8.5,7.8,12.7
	C227.5,132.9,223.6,126.6,223.6,126.8z"/>
<path class="st0" d="M143.5,181.6c-1.1,1.6-2,3.1-3,4.6c-0.2,0.2-0.4,0.3-0.7,0.3c-5.1,0-10.1,0-15.5,0c1.1-1.7,2.1-3.3,3.1-4.8
	c0.1-0.1,0.4-0.2,0.6-0.2L143.5,181.6z"/>
<path class="st0" d="M115.6,85.3c1,1.6,1.9,3,2.7,4.5c0.1,0.3,0.1,0.7,0,1c-2.5,4.1-5.1,8.2-7.6,12.3c-0.1,0.1-0.1,0.1-0.2,0.2
	c-0.9-1.6-1.9-3.1-2.8-4.7c-0.1-0.2,0-0.4,0.1-0.6C110.4,93.8,112.9,89.7,115.6,85.3z"/>
<path class="st0" d="M197.2,115.1c1.9,0,3.7,0,5.6,0c0.3,0,0.5,0.2,0.7,0.4c2.6,4.1,5.1,8.2,7.8,12.5c-2,0-3.9,0-5.7,0
	c-0.3-0.1-0.5-0.2-0.7-0.5c-2.5-4.1-5-8.2-7.6-12.2C197.2,115.2,197.2,115.1,197.2,115.1z"/>
</svg>
