<?xml version="1.0" encoding="utf-8"?>
<!-- Generator: Adobe Illustrator 23.0.3, SVG Export Plug-In . SVG Version: 6.00 Build 0)  -->
<svg version="1.1" id="Capa_1" xmlns="http://www.w3.org/2000/svg" xmlns:xlink="http://www.w3.org/1999/xlink" x="0px" y="0px"
	 viewBox="0 0 347.4 297.1" style="enable-background:new 0 0 347.4 297.1;" xml:space="preserve">
<style type="text/css">
	.st0{fill:#ACACAC;}
</style>
<title>logo-conacyt</title>
<path class="st0" d="M347.4,243.9c-0.2,1-0.4,2-0.5,2.9c-0.3,1.7-0.5,3.4-0.8,5.2h-14.9c-2.1,14.6-4.1,29.1-6.2,43.7h-11.9
	c0.4-3.6,1.1-7.2,1.6-10.8s1.1-7.2,1.7-10.8s1.1-7.2,1.7-10.8s1.1-7.2,1.7-10.9c-1,0-2-0.1-2.9-0.1c-3.8,0-7.6,0.1-11.5,0.1
	c-1,0-1.9,0.4-2.6,1.1c-0.1,0.1-0.3,0.3-0.4,0.4c-3.1,4-6.3,8.1-9.4,12.1c-0.7,1-1.3,2-2,3c-1.8,2.7-2.9,5.8-3.1,9
	c-0.4,3.9-0.9,7.8-1.3,11.8c-0.1,1.4-0.2,2.7-0.4,4.1c-0.1,0.6-0.1,1.3-0.2,2h-11.8c0.1-1,0.2-1.9,0.3-2.8
	c0.7-5.2,1.3-10.5,2.1-15.7c0.5-2.9,0.1-5.9-1.2-8.6c-3.6-8-7.2-16.1-10.8-24.1c-0.2-0.5-0.4-1-0.7-1.6c0.3-0.1,0.6-0.1,0.9-0.1
	c3.6,0,7.2,0.1,10.7,0.1c0.8-0.1,1.5,0.3,1.9,1c0.4,0.6,0.7,1.3,1,1.9c1.8,4.9,3.6,9.7,5.4,14.6c0.1,0.4,0.3,0.8,0.5,1.3
	c0.3-0.4,0.5-0.6,0.7-0.9c3.2-5,6.4-9.9,9.5-14.9c1.2-2.1,3.4-3.4,5.9-3.3c6.1,0.1,12.2,0.1,18.4,0.1c9.4,0,18.8-0.1,28.1-0.1
	c0.2,0,0.3,0,0.5-0.1L347.4,243.9z"/>
<path class="st0" d="M172.8,0l2.2,0.5c6.7,1.4,11.6,7.2,11.8,14.1c0.3,7.3-4.7,13.7-11.8,15.2c-8.2,1.5-16.2-3.8-17.9-12
	c-1.4-8.2,4.1-16,12.4-17.4c0.3,0,0.5-0.1,0.8-0.1c0.4,0,0.9-0.2,1.3-0.3H172.8z"/>
<path class="st0" d="M123.1,253.9c-1.1,7.2-2.1,14.1-3.1,21.1s-2,13.8-3,20.8h-10.8l7.9-52.9c0.2-0.1,0.4-0.1,0.6-0.1
	c5.1,0,10.1,0.1,15.2,0.1c0.9,0,1.8,0.4,2.2,1.2c0.4,0.6,0.7,1.3,0.9,2c4.2,11.6,8.4,23.1,12.5,34.7c0.4,1.2,0.9,2.3,1.4,3.5
	c0.1,0.3,0.3,0.6,0.5,0.8c2-14.2,3.9-28,5.8-42h10.6c-0.2,1.9-0.5,3.8-0.7,5.7l-0.8,5.7c-0.2,1.9-0.5,3.8-0.8,5.7s-0.5,3.9-0.8,5.9
	s-0.5,3.8-0.8,5.7l-0.8,5.7c-0.2,1.9-0.5,3.8-0.7,5.7c-0.3,1.8-0.5,3.7-0.6,5.6l0.3,0.1c0.2-0.2,0.4-0.4,0.5-0.6
	c0.6-1,1.2-1.9,1.8-2.9l22-39.6c0.2-0.4,0.4-0.8,0.7-1.1c0.6-1.1,1.8-1.8,3.1-1.9c3.6-0.1,7.2-0.1,10.7-0.1c0.4,0,0.8,0.1,1.2,0.2
	c0.9,0.3,1.5,1,1.7,1.8c1.8,6.7,3.6,13.3,5.5,20c2.7,9.9,5.3,19.7,8,29.6c0.1,0.4,0.2,0.9,0.3,1.4c-0.2,0.1-0.4,0.1-0.6,0.1
	c-3.2,0-6.4,0-9.5-0.1c-1.4,0.1-2.6-0.8-2.9-2.2c-0.6-1.9-1.1-3.9-1.7-5.8c-0.9-3.1-1.7-6.3-2.5-9.5c-0.1-0.3-0.2-0.6-0.3-0.9
	c-0.3-1.2-1.4-2.1-2.7-2c-1.1,0-2.3,0-3.4,0c-2.6-0.1-5.1-0.3-7.7-0.5c-2.2-0.4-4.4,0.7-5.6,2.6c-0.4,0.7-0.8,1.4-1.2,2.1
	c-2.4,4.7-4.8,9.4-7.3,14c-0.6,1.4-2,2.3-3.6,2.2c-8.5,0-17.1,0.1-25.6,0.1c-0.2,0-0.5,0-0.8,0c-0.1-0.4-0.3-0.8-0.5-1.2
	c-4.6-13.1-9.2-26.2-13.8-39.3c-0.1-0.3-0.2-0.7-0.4-1C123.8,254.3,123.5,254.2,123.1,253.9z M190.1,251.6l-0.3-0.1l-1.9,3.6
	l-1.9,3.6c-0.6,1.2-1.3,2.5-1.9,3.8c-0.7,1.2-1.3,2.4-1.8,3.6c3.9,0.3,7.8,0.2,11.7-0.1L190.1,251.6z"/>
<path class="st0" d="M74.3,297c-4,0.2-8.1-0.4-11.9-1.7c-8.2-2.9-13.6-8.5-15.3-17.1c-2.4-11.6,2.2-29.4,20.9-35.2
	c5.4-1.6,11.1-2,16.7-1.3c2.5,0.3,5,0.8,7.4,1.6c5.2,1.9,9.5,5.8,11.8,10.8c2.3,4.8,3.3,10.2,2.8,15.5c-0.2,4.2-1.4,8.3-3.3,12
	c-3.8,7.2-9.8,11.7-17.5,13.9C82.1,296.7,78.2,297.2,74.3,297z M58.5,272.2c0.2,1.5,0.2,3,0.5,4.5c1.1,5.4,4.3,8.9,9.7,10.2
	c2.7,0.7,5.6,0.9,8.4,0.5c6.3-0.8,11.2-3.7,14.4-9.4c2.9-5.2,3.6-11.4,2-17.2c-1-4.2-4.2-7.6-8.3-8.8c-1.4-0.5-2.8-0.8-4.2-1
	c-7.9-1-14.2,1.8-18.7,8.4C59.8,263.3,58.5,267.7,58.5,272.2z"/>
<path class="st0" d="M43.3,285.4c-0.7,3-1.4,5.9-2.1,8.8c-0.1,0.8-0.8,1.5-1.6,1.5c-5.5,0.8-11,1.6-16.6,1.3
	c-3.5-0.2-6.9-0.9-10.2-2.3c-5.5-2.1-9.7-6.7-11.3-12.4c-2.3-7.3-2-15.1,0.7-22.2c3.8-9.7,11-15.6,21.1-18.1c3.8-0.9,7.7-1.2,11.6-1
	c3.9,0.1,7.8,0.3,11.7,0.5c0.2,0,0.3,0,0.5,0.1v10.2l-4-0.6c-3-0.4-6-0.9-9-1.2c-11.1-1.3-21.2,6.6-22.6,17.6
	c-0.4,2.3-0.3,4.8,0.1,7.1c1.4,5.8,5.1,9.3,10.8,10.7c3.2,0.7,6.4,0.9,9.6,0.6c2.2-0.1,4.5-0.2,6.8-0.3
	C40.3,285.7,41.7,285.6,43.3,285.4z"/>
<path class="st0" d="M261.8,241.5v10.9l-2.6-0.6c-3-0.9-6-1.5-9.1-1.9c-10.3-1.1-20.1,4.1-23.2,15.7c-1,3.3-1.1,6.9-0.2,10.2
	c1.4,5.2,5.9,9.1,11.3,9.7c4,0.4,8,0.6,11.9,0.4c2.3-0.1,4.6-0.1,6.9-0.2c0.4,0,0.7,0.1,1.1,0.1c-0.4,2.2-0.8,4.4-1.3,6.6
	c-0.4,1.8-1.8,3.2-3.6,3.4c-1.3,0.3-2.7,0.5-4,0.6c-4.8,0.6-9.7,0.7-14.6,0.1c-2.6-0.3-5.1-1-7.5-2c-5.5-2.3-9.6-7.2-10.9-13.1
	c-1.9-7.4-1.4-15.2,1.5-22.3c3.5-8.6,10-14,18.8-16.6c3.1-1,6.4-1.4,9.6-1.4C251.1,241.1,256.4,241.3,261.8,241.5z"/>
<path class="st0" d="M80.9,119.4c-8.3,0-15-6.6-15.1-14.9c0-8.3,6.6-15,14.9-15.1s15,6.6,15.1,14.9c0,0,0,0.1,0,0.1
	C95.8,112.6,89.1,119.3,80.9,119.4z"/>
<path class="st0" d="M220.9,20.8c-0.1,8.3-6.9,14.9-15.2,14.8s-14.9-6.9-14.8-15.2s6.9-14.9,15.2-14.8S221,12.5,220.9,20.8
	L220.9,20.8z"/>
<path class="st0" d="M87.1,171c0-8.3,6.7-15,14.9-15.1c8.3,0,15,6.7,15.1,14.9c0,8.3-6.7,15-14.9,15.1c0,0,0,0-0.1,0
	c-8.2,0-15-6.6-15-14.8C87.1,171.1,87.1,171.1,87.1,171z"/>
<path class="st0" d="M265.5,148.6c-8.3,0-15-6.7-15-15s6.7-15,15-15s15,6.7,15,15c0,0.2,0,0.4,0,0.6
	C280.2,142.3,273.6,148.6,265.5,148.6z"/>
<path class="st0" d="M104,68c-0.1,8.3-6.8,15-15.1,15C80.6,83,74,76.3,74,68c0,0,0,0,0,0c0-8.3,6.7-15,15-15S104,59.7,104,68L104,68
	z"/>
<path class="st0" d="M108.8,54.6c-8.3,0-15-6.7-15-14.9c0.1-8.3,6.8-15,15.1-15c8.3,0.1,14.9,6.9,14.8,15.2
	c0,8.2-6.6,14.8-14.8,14.8C109,54.6,108.9,54.6,108.8,54.6z"/>
<path class="st0" d="M195.9,219.1c-8.2,0.1-14.9-6.5-15-14.7c0-0.1,0-0.1,0-0.2c0.1-8.2,6.8-14.9,15-15.1c8.4,0.1,15.1,6.9,15,15.3
	c0,0,0,0,0,0c0,8.1-6.6,14.7-14.7,14.7C196.1,219.1,196,219.1,195.9,219.1z"/>
<path class="st0" d="M219.9,38.1c-0.1-8.1,6.5-14.8,14.6-14.8c0,0,0,0,0,0c8.3-0.2,15.1,6.4,15.3,14.7c0,0.1,0,0.1,0,0.2
	c0.1,8-6.9,15.1-15,15.1C226.5,53.1,219.8,46.4,219.9,38.1z"/>
<path class="st0" d="M252.4,97.6c0-8.2,6.6-14.8,14.8-14.8c8.2,0,15,6.6,15.1,14.8c0.2,8.2-6.3,15.1-14.5,15.3
	c-8.2,0.2-15.1-6.3-15.3-14.5C252.4,98.1,252.4,97.9,252.4,97.6L252.4,97.6z"/>
<path class="st0" d="M229,204.2c-8.2,0.1-14.8-6.5-14.9-14.7c0-0.3,0-0.5,0-0.8c0-8.3,6.7-15,15-15s15,6.7,15,15c0,0.4,0,0.8,0,1.2
	C243.7,198,237.1,204.3,229,204.2z"/>
<path class="st0" d="M69.9,139.3c0.6-8.3,7.7-14.5,16-13.9c7.5,0.5,13.4,6.5,13.9,13.9c0.6,8.3-5.7,15.4-13.9,16
	c-8.3,0.6-15.4-5.7-16-13.9C69.9,140.7,69.9,140,69.9,139.3z"/>
<path class="st0" d="M138,37.6c-8.2,0-14.9-6.7-14.9-14.9c0,0,0-0.1,0-0.1c-0.1-8.2,6.4-14.9,14.6-15c0,0,0.1,0,0.1,0
	c8.3,0,15,6.6,15.1,14.8C153,30.7,146.3,37.5,138,37.6z"/>
<path class="st0" d="M237.6,165.4c-0.1-8.1,6.5-14.8,14.6-14.8c0,0,0.1,0,0.1,0c8.2-0.2,15.1,6.4,15.2,14.6c0,0.1,0,0.1,0,0.2
	c-0.1,8.3-6.7,15-14.9,15.2c-8.3,0-15-6.8-15-15C237.5,165.5,237.5,165.4,237.6,165.4z"/>
<path class="st0" d="M272.6,64.2c0,8.3-6.7,15-15,15c0,0,0,0-0.1,0c-8.2-0.3-14.7-6.9-14.7-15.1c0-8.2,6.7-14.8,14.9-14.8
	c0,0,0.1,0,0.1,0c8-0.1,14.7,6.3,14.8,14.3C272.6,63.8,272.6,64,272.6,64.2z"/>
<path class="st0" d="M127.8,208c-8.3,0-15-6.7-15-15s6.7-15,15-15s15,6.7,15,15c0,8.3-6.6,15-14.9,15C127.9,208,127.8,208,127.8,208
	z"/>
<path class="st0" d="M160.5,220.1c-8.2,0-14.9-6.7-14.9-14.9c0-8.2,6.7-14.9,14.9-14.9s14.9,6.7,14.9,14.9c0,0,0,0,0,0
	C175.4,213.4,168.8,220.1,160.5,220.1C160.5,220.1,160.5,220.1,160.5,220.1z"/>
<path class="st0" d="M194.7,181.4c-6.5,0.1-11.8-5.1-11.9-11.5c-0.1-6.5,5.1-11.8,11.5-11.9c6.5-0.4,12,4.6,12.4,11.1
	c0.4,6.5-4.6,12-11.1,12.4C195.3,181.4,195,181.4,194.7,181.4L194.7,181.4z"/>
<path class="st0" d="M112.5,128c-6.5,0-11.8-5.3-11.8-11.9c0-6.5,5.3-11.8,11.9-11.8c6.5,0,11.8,5.3,11.8,11.7
	c0.1,6.5-5.2,11.9-11.7,11.9C112.6,128,112.6,128,112.5,128z"/>
<path class="st0" d="M208.8,69.9c-6.5-0.1-11.7-5.5-11.5-12c0.1-6.5,5.5-11.7,12-11.5c6.5,0.1,11.7,5.5,11.5,12c0,0.1,0,0.1,0,0.2
	C220.6,65,215.3,70.1,208.8,69.9z"/>
<path class="st0" d="M155.6,171.9c0.1-6.5,5.4-11.8,11.9-11.7c6.5,0.1,11.8,5.4,11.7,11.9c-0.1,6.5-5.4,11.8-11.9,11.7
	c0,0,0,0-0.1,0C161.1,183.8,155.5,178.3,155.6,171.9z"/>
<path class="st0" d="M157.7,62.1c-6.5,0.2-11.9-4.9-12.1-11.5c-0.2-6.5,4.9-11.9,11.5-12.1c0.2,0,0.5,0,0.7,0
	c6.5-0.2,11.9,4.9,12.1,11.5c0.2,6.5-4.9,11.9-11.5,12.1C158.2,62.1,157.9,62.1,157.7,62.1z"/>
<path class="st0" d="M244.3,133.6c0,6.5-5.1,11.7-11.6,11.8c0,0-0.1,0-0.1,0c-6.5,0-12-5.4-12-11.7c0.1-6.6,5.4-11.8,11.9-11.9
	c6.5,0,11.8,5.3,11.8,11.7C244.3,133.5,244.3,133.5,244.3,133.6z"/>
<path class="st0" d="M229.1,155.3c0,6.5-5.3,11.7-11.8,11.8c-6.6,0-11.9-5.3-11.9-11.9c0.1-6.5,5.4-11.7,11.9-11.6c0,0,0.1,0,0.1,0
	c6.4,0,11.7,5.2,11.7,11.6C229.1,155.2,229.1,155.2,229.1,155.3z"/>
<path class="st0" d="M118.1,97.6c-6.5-0.1-11.8-5.3-11.9-11.9c0.1-6.5,5.3-11.7,11.8-11.8c6.5-0.2,12,4.9,12.2,11.4
	c0.2,6.5-4.9,12-11.4,12.2C118.5,97.6,118.3,97.6,118.1,97.6z"/>
<path class="st0" d="M173.1,47.7c-0.2-6.5,4.9-11.9,11.4-12.1c6.5-0.2,11.9,4.9,12.1,11.4c0,0.2,0,0.5,0,0.7
	c0,6.5-5.2,11.8-11.7,11.8c-0.1,0-0.1,0-0.2,0c-6.4,0-11.7-5.2-11.7-11.6C173.1,47.9,173.1,47.8,173.1,47.7z"/>
<path class="st0" d="M133.3,50c6.5,0,11.7,5.2,11.7,11.7s-5.2,11.7-11.7,11.7c-6.3,0-11.5-5-11.7-11.3c-0.4-6.3,4.4-11.7,10.7-12.1
	C132.7,49.9,133,49.9,133.3,50z"/>
<path class="st0" d="M241,78.7c0.1,6.5-5.2,11.9-11.7,11.9c-6.5,0.1-11.9-5.2-11.9-11.7s5.2-11.9,11.7-11.9c0.1,0,0.1,0,0.2,0
	C235.7,67,240.9,72.2,241,78.7z"/>
<path class="st0" d="M236.1,94.2c6.5,0,11.8,5.3,11.7,11.8c0,0,0,0.1,0,0.1c0,6.4-5.1,11.6-11.5,11.6c-0.1,0-0.1,0-0.2,0
	c-6.5,0-11.8-5.2-11.8-11.7C224.4,99.5,229.6,94.2,236.1,94.2L236.1,94.2z"/>
<path class="st0" d="M109.3,143.8c-0.1-6.4,5-11.6,11.3-11.7c0.1,0,0.2,0,0.2,0c6.5-0.1,11.8,5.1,11.8,11.6
	c0.1,6.5-5.1,11.8-11.6,11.8c-6.5,0.1-11.8-5.1-11.8-11.6C109.3,143.9,109.3,143.8,109.3,143.8z"/>
<path class="st0" d="M140.4,174c-6.5,0.1-11.8-5.1-11.9-11.6c-0.1-6.5,5.1-11.8,11.6-11.9c6.5-0.1,11.8,5.1,11.9,11.5
	c0.1,6.4-5,11.8-11.4,11.9C140.5,174,140.4,174,140.4,174z"/>
<path class="st0" d="M162.5,156.6c-4.9-0.1-8.9-4.1-8.8-9.1c0.1-4.9,4.1-8.9,9.1-8.8c4.9,0.1,8.8,4.1,8.8,9
	C171.4,152.6,167.4,156.5,162.5,156.6z"/>
<path class="st0" d="M186.3,78.6c-0.1-4.8,3.8-8.8,8.7-8.9c0.1,0,0.1,0,0.2,0c4.9,0,9,3.9,9,8.9c0,0,0,0.1,0,0.1
	c0,4.8-3.8,8.8-8.7,8.9c-0.1,0-0.1,0-0.2,0c-4.8,0.1-8.8-3.6-9-8.4C186.3,79,186.3,78.8,186.3,78.6z"/>
<path class="st0" d="M201.6,128.5c4.8-0.1,8.8,3.7,8.9,8.5c0,0,0,0.1,0,0.1c0,4.9-3.9,9-8.9,9c-4.9,0-9-3.9-9-8.9
	c0-4.8,3.8-8.8,8.7-8.8C201.4,128.5,201.5,128.5,201.6,128.5z"/>
<path class="st0" d="M175.6,80.1c-4.7,0.1-8.7-3.6-8.8-8.4c0-0.1,0-0.3,0-0.4c-0.1-4.9,3.9-8.9,8.8-9c0,0,0,0,0.1,0c5,0,9,4.1,9,9.1
	c0,0,0,0,0,0c0,4.8-3.9,8.7-8.8,8.7C175.8,80.1,175.7,80.1,175.6,80.1z"/>
<path class="st0" d="M217.8,96c0.1,4.8-3.8,8.8-8.6,8.9c-0.1,0-0.2,0-0.3,0c-5,0-9-4-8.9-9c0.1-4.9,4.1-8.9,9.1-8.8c0,0,0,0,0,0
	c4.8,0,8.7,3.8,8.8,8.6C217.8,95.8,217.8,95.9,217.8,96z"/>
<path class="st0" d="M143.1,82.9c4.8-0.1,8.8,3.7,8.9,8.5c0,0.1,0,0.2,0,0.3c0,4.9-3.9,9-8.9,9c0,0-0.1,0-0.1,0
	c-4.9,0-8.8-4-8.8-8.9c0,0,0,0,0-0.1c-0.1-4.8,3.7-8.7,8.5-8.9C142.8,82.9,143,82.9,143.1,82.9z"/>
<path class="st0" d="M156.7,85c-4.8,0.1-8.8-3.6-8.9-8.4c0-0.1,0-0.2,0-0.4c0-4.9,4-9,8.9-9c4.9,0,8.9,4,8.8,8.9c0,0,0,0,0,0.1
	c0.1,4.8-3.7,8.7-8.5,8.8C156.9,85,156.8,85,156.7,85z"/>
<path class="st0" d="M208.6,125.6c-4.8,0.1-8.8-3.7-8.9-8.5c0-0.1,0-0.2,0-0.3c0-4.9,4-8.9,8.9-8.9c4.9,0,8.9,4,8.9,8.9
	c0.1,4.8-3.8,8.7-8.6,8.8C208.8,125.6,208.7,125.6,208.6,125.6z"/>
<path class="st0" d="M183.1,139.1c4.9,0,8.9,4,8.9,8.9c0,4.9-4,8.9-8.9,8.9c-4.9,0-8.9-4-8.9-8.9c0,0,0,0,0,0
	C174.2,143.1,178.2,139.1,183.1,139.1z"/>
<path class="st0" d="M145,142.6c-4.9,0-8.9-4-8.8-8.9s4-8.9,8.9-8.8c4.9,0,8.8,3.9,8.8,8.8c0.1,4.9-3.8,8.8-8.7,8.9
	C145.2,142.6,145.1,142.6,145,142.6z"/>
<path class="st0" d="M136.6,121.7c-4.9-0.2-8.8-4.3-8.6-9.2c0.2-4.7,3.9-8.4,8.6-8.6c4.9,0.2,8.8,4.3,8.6,9.2
	C145,117.8,141.2,121.6,136.6,121.7z"/>
<path class="st0" d="M150.3,114.8c0.1-3.7,3.1-6.6,6.8-6.5c0,0,0.1,0,0.1,0c3.7,0,6.7,3,6.7,6.7c0,3.7-3,6.7-6.7,6.7
	c-0.1,0-0.3,0-0.4,0c-3.7,0-6.6-3.1-6.6-6.7C150.3,114.9,150.3,114.8,150.3,114.8z"/>
<path class="st0" d="M162.5,90.6c3.6,0,6.5,2.8,6.6,6.4c0,0.1,0,0.2,0,0.3c0.1,3.7-2.7,6.7-6.4,6.9s-6.7-2.7-6.9-6.4
	c0-0.2,0-0.3,0-0.5c-0.1-3.6,2.7-6.6,6.3-6.7C162.3,90.6,162.4,90.6,162.5,90.6z"/>
<path class="st0" d="M172.4,94.4c0-3.7,3-6.7,6.7-6.7c3.7,0,6.7,3,6.7,6.7c0,3.7-3,6.7-6.7,6.7C175.4,101.2,172.4,98.2,172.4,94.4
	C172.4,94.5,172.4,94.5,172.4,94.4z"/>
<path class="st0" d="M162.6,128.6c0.1-3.7,3.1-6.6,6.7-6.5s6.6,3.1,6.5,6.7c-0.1,3.6-3.1,6.5-6.7,6.5
	C165.5,135.3,162.6,132.3,162.6,128.6C162.6,128.7,162.6,128.6,162.6,128.6z"/>
<path class="st0" d="M186.4,130.7c-3.7,0-6.7-3-6.7-6.7c0-3.7,3-6.7,6.7-6.7c0,0,0,0,0,0c3.7,0,6.7,3,6.7,6.7
	C193.1,127.7,190.1,130.7,186.4,130.7z"/>
<path class="st0" d="M190.2,114.3c-3.7-0.1-6.5-3.2-6.4-6.9c0.1-3.5,2.9-6.3,6.4-6.4c3.7,0,6.7,3,6.8,6.7
	C196.9,111.4,193.9,114.3,190.2,114.3z"/>
<path class="st0" d="M179.8,110.2c0,3-2.3,5.6-5.4,5.7c-3.1,0.2-5.8-2.2-5.9-5.3s2.2-5.8,5.3-5.9c0.2,0,0.3,0,0.5,0
	C177.3,104.7,179.8,107.1,179.8,110.2z"/>
</svg>
