<?xml version="1.0" encoding="utf-8"?>
<!-- Generator: Adobe Illustrator 23.0.3, SVG Export Plug-In . SVG Version: 6.00 Build 0)  -->
<svg version="1.1" id="Capa_1" xmlns="http://www.w3.org/2000/svg" xmlns:xlink="http://www.w3.org/1999/xlink" x="0px" y="0px"
	 viewBox="0 0 294 294" style="enable-background:new 0 0 294 294;" xml:space="preserve">
<style type="text/css">
	.st0{fill:#ACACAC;}
</style>
<title>patente-tramite</title>
<path class="st0" d="M147.2,294c-51.7,0.1-99.7-27-126.3-71.4l0,0c-41.7-69.5-19-160,50.5-201.6C141-20.7,231.3,1.9,273,71.5
	c20,33.4,26,73.4,16.5,111.2C273.2,248.1,214.5,293.9,147.2,294z M27.9,218.4c39.3,65.6,124.8,87,190.4,47.7
	c65.8-39.4,87.1-124.7,47.7-190.4c-18.9-31.6-49.6-54.3-85.3-63.3C145,3.4,107.1,9,75.6,28C10,67.3-11.5,152.8,27.9,218.4z"/>
<path class="st0" d="M42.4,139.4c1.7,1.9,2.6,4.8,2.7,8.4l0.2,7.1l12.2-0.3l0.2,7l-34,1L23.4,148c-0.2-2.9,0.6-5.8,2.4-8.1
	c1.7-2.1,4.4-3.1,8-3.2C37.8,136.6,40.7,137.5,42.4,139.4z M30.3,145.2c-0.8,1.1-1.1,2.5-1,3.8l0.2,6.4l10-0.3l-0.2-6.4
	c0-1.4-0.4-2.7-1.3-3.7c-1.1-1-2.5-1.4-3.9-1.2C32.7,143.6,31.3,144.2,30.3,145.2z"/>
<path class="st0" d="M26.9,117.6l2.1-7.7l36-2.5l-2.1,7.4l-7.3,0.3l-3.3,12l6.1,4.1l-2,7.2L26.9,117.6z M47.1,123.7l2.3-8.4l-14,0.6
	L47.1,123.7z"/>
<path class="st0" d="M49.4,70l5.1,3.2l-5.4,8.6l23.7,14.8l-3.8,6.1L45.3,87.8l-5.4,8.7l-5.1-3.2L49.4,70z"/>
<path class="st0" d="M80.6,49.2L66.9,60.8l4.7,5.5l12.6-10.7l3.8,4.5L75.4,70.8l5.7,6.7l14.3-12.2l3.9,4.7L79.7,86.6l-22-25.9
	l19-16.1L80.6,49.2z"/>
<path class="st0" d="M89.6,36.8l6.9-2.7l21.1,17.2l-8.6-22.1l6.2-2.4l12.3,31.7l-6.6,2.6L99.3,43.6L108,66l-6.2,2.4L89.6,36.8z"/>
<path class="st0" d="M154.8,23l0.3,6l-10.1,0.5l1.3,27.9l-7.1,0.3l-1.3-28l-10.2,0.5l-0.3-6L154.8,23z"/>
<path class="st0" d="M189.6,36.8l-17.4-4.6l-1.8,7l15.9,4.2l-1.5,5.7l-16-4.2l-2.2,8.4l18.2,4.8l-1.5,5.9l-24.9-6.6l8.7-32.8
	l24.1,6.4L189.6,36.8z"/>
<path class="st0" d="M243.8,79.2l-11.9-13.5l-5.4,4.8l10.9,12.4l-4.4,3.9l-10.9-12.4l-6.6,5.8L228,94.2l-4.6,4l-17-19.3l25.5-22.4
	l16.4,18.7L243.8,79.2z"/>
<path class="st0" d="M256.3,87.9l2.8,6.9l-16.9,21.4l21.9-8.9l2.5,6.1l-31.5,12.8l-2.7-6.6l17.1-21.9l-22.3,9.1l-2.5-6.1L256.3,87.9
	z"/>
<path class="st0" d="M265.2,185.6l-5.9-1.2l2-10l-27.3-5.6l1.4-7l27.4,5.6l2.1-10l5.9,1.2L265.2,185.6z"/>
<path class="st0" d="M249,215.8c-1.1,0.8-2.3,1.3-3.6,1.6c-1.1,0.2-2.2,0.2-3.3,0c-1.2-0.2-2.4-0.6-3.4-1.2c-1.4-0.8-2.6-2-3.5-3.4
	c-1-1.5-1.3-3.4-0.9-5.1c-1.1,1-2.5,1.5-4,1.5c-1.8-0.2-3.6-0.8-5.1-1.8l-2-1.1c-0.9-0.6-1.8-1-2.8-1.4c-0.8-0.3-1.6-0.2-2.3,0.2
	l-0.7-0.4l3.9-6.8c0.8,0.2,1.4,0.4,1.8,0.5c0.9,0.3,1.8,0.7,2.7,1.2l2.8,1.5c1.9,1.1,3.3,1.5,4.3,1.2s2-1.2,3-3l3.5-6l-11.5-6.7
	l3.5-6l29.4,17l-8.1,14.1C251.6,213.1,250.4,214.6,249,215.8z M252,200.6l-7.9-4.6l-3.8,6.6c-0.6,1-1.1,2.1-1.2,3.2
	c-0.1,1.5,0.6,2.7,2.3,3.7s3.3,1.2,4.6,0.4c0.9-0.7,1.7-1.5,2.2-2.5L252,200.6z"/>
<path class="st0" d="M229.1,239.4l-6.1,5.1l-31-18.4l5.9-4.9l6.2,3.9l9.6-8l-2.7-6.8l5.7-4.8L229.1,239.4z M215.9,222.9l-6.7,5.6
	l11.9,7.5L215.9,222.9z M226.2,254.4l1-9.8l3.6-3l1,8.1L226.2,254.4z"/>
<path class="st0" d="M179.4,267.1l-2.2-5.6l9.4-3.7l-10.2-26l6.6-2.6l10.3,26l9.5-3.8l2.2,5.6L179.4,267.1z"/>
<path class="st0" d="M157.8,236.1l7-1.1l5.4,33.5l-7,1.1L157.8,236.1z"/>
<path class="st0" d="M127.3,269.2l-10.2-1.1l3.6-33.8l6.6,0.7l-2.5,22.8c-0.1,0.6-0.2,1.6-0.3,2.8s-0.2,2.1-0.3,2.7l9.4-27.6
	l6.9,0.7l3.3,29c0.1-0.6,0.2-1.5,0.3-2.7s0.2-2.1,0.3-2.8l2.5-22.8l6.6,0.7l-3.6,33.8l-10.3-1.1l-3.3-27.2L127.3,269.2z"/>
<path class="st0" d="M80.2,251.9l2.7-5.4l9.1,4.5l12.3-25.1l6.4,3.1l-12.3,25.1l9.2,4.5l-2.6,5.4L80.2,251.9z"/>
<path class="st0" d="M56.3,222.9l13,12.4l5-5.2l-11.9-11.4l4.1-4.2l11.9,11.4l6-6.3l-13.6-13l4.2-4.4L93.6,220l-23.5,24.5l-18-17.2
	L56.3,222.9z"/>
<path class="st0" d="M147.1,229.8c-6.8,0-13.6-0.8-20.2-2.5c-21.3-5.3-39.6-18.9-50.9-37.7l0,0c-23.4-39.2-10.7-89.9,28.5-113.4
	s89.9-10.7,113.4,28.5s10.7,89.9-28.5,113.4C176.6,225.7,162,229.8,147.1,229.8L147.1,229.8z M83,185.4
	c21.2,35.3,67,46.8,102.3,25.6s46.8-67,25.6-102.3s-67-46.8-102.3-25.6c-17,10.2-29.2,26.7-34,45.8C69.8,148.1,72.8,168.4,83,185.4z
	"/>
<circle class="st0" cx="47.6" cy="187.4" r="6.4"/>
<path class="st0" d="M120.3,186l-7.2,4.3l-20.9-34.9l7.2-4.3L120.3,186z"/>
<path class="st0" d="M129.4,133.2l10.5-6.3l20.9,34.9l-6.7,4.1l-14.1-23.6c-0.4-0.7-1-1.6-1.7-2.9s-1.3-2.2-1.7-2.8l10.9,33.2
	l-7.1,4.2l-24.1-25.3c0.4,0.7,1,1.6,1.7,2.8s1.3,2.2,1.7,2.8l14.1,23.6L127,182l-20.9-34.9l10.6-6.4l22.8,23.6L129.4,133.2z"/>
<path class="st0" d="M181.8,128.6c-1,2.9-3.4,5.5-7.2,7.8l-7.3,4.3l7.5,12.5l-7.2,4.3l-20.9-34.8l15-9c3.4-2.1,6.7-2.8,9.9-2.2
	s5.8,2.7,8.1,6.5C182.1,122.2,182.9,125.7,181.8,128.6z M168.7,119.4c-1.6-0.2-3.2,0.2-4.6,1.2l-6.6,3.9l6.1,10.3l6.6-3.9
	c1.5-0.8,2.6-2,3.1-3.6c0.4-1.7,0-3.4-1-4.8C171.4,120.6,170.1,119.6,168.7,119.4z"/>
<path class="st0" d="M206.4,134.4l-7.2,4.3l-20.9-34.8l7.2-4.3L206.4,134.4z"/>
</svg>
