<?xml version="1.0" encoding="utf-8"?>
<!-- Generator: Adobe Illustrator 23.0.3, SVG Export Plug-In . SVG Version: 6.00 Build 0)  -->
<svg version="1.1" id="Capa_1" xmlns="http://www.w3.org/2000/svg" xmlns:xlink="http://www.w3.org/1999/xlink" x="0px" y="0px"
	 viewBox="0 0 266.9 302" style="enable-background:new 0 0 266.9 302;" xml:space="preserve">
<style type="text/css">
	.st0{fill:#3B536D;}
</style>
<title>plusvalia</title>
<path class="st0" d="M87.8,0c-1.9,0-3.5,1.6-3.5,3.5v21.1c0.1,1.9,1.6,3.4,3.5,3.5h31.6v28.2C51.5,58.1-2,114.7-0.2,182.6
	S58.2,304,126.1,302.2s121.5-58.4,119.6-126.3c-0.8-31.1-13.4-60.8-35.3-82.9l21.6-21.6l15.4,15.3c1.4,1.3,3.6,1.3,5,0l13.4-13.4
	c1.3-1.4,1.3-3.5,0-4.9l-35.8-35.8c-1.4-1.2-3.5-1.2-4.9,0L211.7,46c-1.3,1.4-1.3,3.6,0,5l15.4,15.4L205.4,88
	c-21.7-19.7-49.7-30.9-79-31.7V28.1h31.6c1.9-0.1,3.4-1.6,3.5-3.5V3.5c-0.1-1.9-1.6-3.5-3.5-3.5H87.8z M91.3,7h63.2v14.1H91.3V7z
	 M227.6,40l30.8,30.9l-8.5,8.4l-30.8-30.8L227.6,40z M122.9,63.2c64,0,115.9,51.9,115.9,115.9S186.9,295,122.9,295S7,243.1,7,179.1
	c0,0,0,0,0,0C7,115.1,58.9,63.2,122.9,63.2C122.9,63.2,122.9,63.2,122.9,63.2z M122.9,122.9c-1.9,0-3.5,1.6-3.5,3.5v7.2
	c-12.2,1.5-21.3,12-21.1,24.3c0,7.9,3.5,13.4,8.1,16.8s10,5.1,14.9,7.5c5.4,2.6,10.5,4.3,13.8,6.7s5.3,5.1,5.3,11.2
	c0,11.1-7.4,17.6-17.6,17.6c-8.3,0-14.9-6.1-17.9-12.2c-0.8-1.8-2.9-2.6-4.7-1.8c-1.8,0.8-2.6,2.9-1.8,4.7c0,0.1,0.1,0.2,0.2,0.3
	c3.6,7.2,11,14.4,20.7,15.8v7.2c0.1,1.9,1.8,3.4,3.8,3.2c1.7-0.1,3.1-1.5,3.2-3.2v-7.2c12.2-1.5,21.3-12,21.1-24.4
	c0-7.9-3.5-13.4-8.1-16.8s-10-5.1-14.9-7.5c-5.4-2.6-10.5-4.4-13.8-6.8s-5.3-5-5.3-11.1c0-11.1,7.4-17.6,17.6-17.6
	c8.3,0,14.9,6,17.9,12.1c0.8,1.8,2.9,2.6,4.7,1.8s2.6-2.9,1.8-4.7c0-0.1-0.1-0.2-0.1-0.2l0,0c-3.6-7.2-10.9-14.3-20.7-15.7v-7.2
	C126.4,124.5,124.8,122.9,122.9,122.9z"/>
</svg>
