<?xml version="1.0" encoding="utf-8"?>
<!-- Generator: Adobe Illustrator 23.0.2, SVG Export Plug-In . SVG Version: 6.00 Build 0)  -->
<svg version="1.1" id="Capa_1" xmlns="http://www.w3.org/2000/svg" xmlns:xlink="http://www.w3.org/1999/xlink" x="0px" y="0px"
	 viewBox="0 0 1200 535" style="enable-background:new 0 0 1200 535;" xml:space="preserve">
<style type="text/css">
	.st0{fill:url(#Trazado_2638_1_);}
	.st1{fill:url(#Trazado_2649_1_);}
	.st2{fill:url(#Trazado_2639_1_);}
	.st3{fill:url(#Trazado_2650_1_);}
	.st4{fill:url(#Trazado_2640_1_);}
	.st5{fill:url(#Trazado_2644_1_);}
	.st6{fill:url(#Trazado_2645_1_);}
	.st7{fill:url(#Trazado_2655_1_);}
	.st8{fill:url(#Trazado_2647_1_);}
	.st9{fill:url(#Trazado_2651_1_);}
	.st10{fill:none;stroke:#4BF896;stroke-width:0.25;stroke-linecap:round;stroke-linejoin:round;stroke-dasharray:1;}
	.st11{fill:none;stroke:#4BF896;stroke-width:0.5;stroke-linejoin:round;}
	.st12{fill:none;stroke:#4BF896;stroke-width:0.25;stroke-linejoin:round;}
</style>
<g id="Grupo_1250" transform="translate(2.926 80.805)">
	
		<linearGradient id="Trazado_2638_1_" gradientUnits="userSpaceOnUse" x1="-2.9027" y1="69.114" x2="-2.9946" y2="68.8388" gradientTransform="matrix(270.4025 0 0 -156.1296 1351.2102 11319.8057)">
		<stop  offset="0" style="stop-color:#E6E9ED"/>
		<stop  offset="1" style="stop-color:#E6E9ED;stop-opacity:0"/>
	</linearGradient>
	<path id="Trazado_2638" class="st0" d="M688.5,388.8c-2.1,1.1-4.7,1.1-6.8,0c-1.9-1.1-1.9-2.9,0-4c2.2-1.1,4.7-1.1,6.8,0
		C690.5,385.9,690.4,387.7,688.5,388.8z M674.8,396.7c-2.1,1.1-4.7,1.1-6.8,0c-1.9-1.1-1.9-2.9,0-4c2.2-1.1,4.7-1.1,6.8,0
		C676.7,393.9,676.7,395.6,674.8,396.7L674.8,396.7z M661.1,404.6c-2.1,1.1-4.7,1.1-6.8,0c-1.9-1.1-1.9-2.9,0-4
		c2.1-1.1,4.7-1.1,6.8,0C663,401.8,663,403.6,661.1,404.6z M647.4,412.6c-2.1,1.1-4.7,1.1-6.8,0c-1.9-1.1-1.9-2.9,0-4
		c2.2-1.1,4.7-1.1,6.8,0C649.3,409.7,649.3,411.5,647.4,412.6L647.4,412.6z M633.7,420.5c-2.1,1.1-4.7,1.1-6.8,0
		c-1.9-1.1-1.9-2.9,0-4c2.1-1.1,4.7-1.1,6.8,0C635.6,417.6,635.5,419.4,633.7,420.5L633.7,420.5z M619.9,428.4
		c-2.1,1.1-4.7,1.1-6.8,0c-1.9-1.1-1.9-2.9,0-4c2.2-1.1,4.7-1.1,6.8,0C621.8,425.6,621.8,427.3,619.9,428.4L619.9,428.4z
		 M606.2,436.3c-2.1,1.1-4.7,1.1-6.8,0c-1.9-1.1-1.9-2.9,0-4c2.2-1.1,4.7-1.1,6.8,0C608.1,433.5,608.1,435.2,606.2,436.3
		L606.2,436.3z M592.5,444.3c-2.1,1.1-4.7,1.1-6.8,0c-1.9-1.1-1.9-2.9,0-4c2.2-1.1,4.7-1.1,6.8,0
		C594.4,441.4,594.4,443.2,592.5,444.3L592.5,444.3z M578.8,452.2c-2.2,1.1-4.7,1.1-6.8,0c-1.9-1.1-1.9-2.9,0-4
		c2.2-1.1,4.7-1.1,6.8,0C580.7,449.3,580.7,451.1,578.8,452.2L578.8,452.2z"/>
	
		<linearGradient id="Trazado_2649_1_" gradientUnits="userSpaceOnUse" x1="-2.5846" y1="69.7627" x2="-2.6121" y2="69.6805" gradientTransform="matrix(270.4025 0 0 -156.1296 1029.2102 11368.8057)">
		<stop  offset="0" style="stop-color:#E6E9ED"/>
		<stop  offset="1" style="stop-color:#E6E9ED;stop-opacity:0"/>
	</linearGradient>
	<path id="Trazado_2649" class="st1" d="M366.5,437.8c-2.1,1.1-4.7,1.1-6.8,0c-1.9-1.1-1.9-2.9,0-4c2.2-1.1,4.7-1.1,6.8,0
		C368.5,434.9,368.4,436.7,366.5,437.8z M352.8,445.7c-2.1,1.1-4.7,1.1-6.8,0c-1.9-1.1-1.9-2.9,0-4c2.2-1.1,4.7-1.1,6.8,0
		C354.7,442.9,354.7,444.6,352.8,445.7L352.8,445.7z M339.1,453.6c-2.1,1.1-4.7,1.1-6.8,0c-1.9-1.1-1.9-2.9,0-4
		c2.1-1.1,4.7-1.1,6.8,0C341,450.8,341,452.6,339.1,453.6z"/>
	
		<linearGradient id="Trazado_2639_1_" gradientUnits="userSpaceOnUse" x1="-4.2218" y1="66.7761" x2="-4.4308" y2="66.1481" gradientTransform="matrix(187.4917 0 0 -108.2646 969.7596 7777.5967)">
		<stop  offset="0" style="stop-color:#C8D1DE"/>
		<stop  offset="1" style="stop-color:#E6E9ED;stop-opacity:0"/>
	</linearGradient>
	<path id="Trazado_2639" class="st2" d="M383.9,302.2c-2.1,1.1-4.7,1.1-6.8,0c-1.9-1.1-1.9-2.9,0-4c2.2-1.1,4.7-1.1,6.8,0
		C385.8,299.4,385.8,301.1,383.9,302.2z M370.1,310.1c-2.1,1.1-4.7,1.1-6.8,0c-1.9-1.1-1.9-2.9,0-4c2.2-1.1,4.7-1.1,6.8,0
		C372,307.3,372,309,370.1,310.1z M356.4,318.1c-2.1,1.1-4.7,1.1-6.8,0c-1.9-1.1-1.9-2.9,0-4c2.2-1.1,4.7-1.1,6.8,0
		C358.3,315.2,358.3,317,356.4,318.1L356.4,318.1z M342.7,326c-2.1,1.1-4.7,1.1-6.8,0c-1.9-1.1-1.9-2.9,0-4c2.2-1.1,4.7-1.1,6.8,0
		C344.6,323.1,344.6,324.9,342.7,326L342.7,326z M329,333.9c-2.1,1.1-4.7,1.1-6.8,0c-1.9-1.1-1.9-2.9,0-4c2.1-1.1,4.7-1.1,6.8,0
		C330.9,331.1,330.9,332.8,329,333.9L329,333.9z M315.2,341.8c-2.1,1.1-4.7,1.1-6.8,0c-1.9-1.1-1.9-2.9,0-4c2.2-1.1,4.7-1.1,6.8,0
		C317.2,339,317.1,340.7,315.2,341.8L315.2,341.8z M301.5,349.7c-2.1,1.1-4.7,1.1-6.8,0c-1.9-1.1-1.9-2.9,0-4c2.1-1.1,4.7-1.1,6.8,0
		C303.4,346.9,303.4,348.7,301.5,349.7L301.5,349.7z M287.8,357.7c-2.1,1.1-4.7,1.1-6.8,0c-1.9-1.1-1.9-2.9,0-4
		c2.2-1.1,4.7-1.1,6.8,0C289.7,354.8,289.7,356.6,287.8,357.7L287.8,357.7z M274.1,365.6c-2.1,1.1-4.7,1.1-6.8,0
		c-1.9-1.1-1.9-2.9,0-4c2.2-1.1,4.7-1.1,6.8,0C276,362.7,276,364.5,274.1,365.6L274.1,365.6z M260.4,373.5c-2.1,1.1-4.7,1.1-6.8,0
		c-1.9-1.1-1.9-2.9,0-4c2.2-1.1,4.7-1.1,6.8,0C262.3,370.7,262.3,372.4,260.4,373.5L260.4,373.5z M246.6,381.4
		c-2.2,1.1-4.7,1.1-6.8,0c-1.9-1.1-1.9-2.9,0-4c2.2-1.1,4.7-1.1,6.8,0C248.5,378.6,248.5,380.4,246.6,381.4L246.6,381.4z
		 M232.9,389.4c-2.1,1.1-4.7,1.1-6.8,0c-1.9-1.1-1.9-2.9,0-4c2.2-1.1,4.7-1.1,6.8,0C234.8,386.5,234.8,388.3,232.9,389.4
		L232.9,389.4z M219.2,397.3c-2.1,1.1-4.7,1.1-6.8,0c-1.9-1.1-1.9-2.9,0-4c2.2-1.1,4.7-1.1,6.8,0
		C221.1,394.4,221.1,396.2,219.2,397.3L219.2,397.3z M205.5,405.2c-1.9,1.1-6.8,0-6.8,0s-1.9-2.9,0-4c2.2-1.1,4.7-1.1,6.8,0
		C207.4,402.3,207.4,404.1,205.5,405.2L205.5,405.2z"/>
	
		<linearGradient id="Trazado_2650_1_" gradientUnits="userSpaceOnUse" x1="-4.2218" y1="66.7761" x2="-4.4308" y2="66.1481" gradientTransform="matrix(187.4917 0 0 -108.2646 1674.7596 7821.5967)">
		<stop  offset="0" style="stop-color:#C8D1DE"/>
		<stop  offset="1" style="stop-color:#E6E9ED;stop-opacity:0"/>
	</linearGradient>
	<path id="Trazado_2650" class="st3" d="M1088.9,346.2c-2.1,1.1-4.7,1.1-6.8,0c-1.9-1.1-1.9-2.9,0-4c2.2-1.1,4.7-1.1,6.8,0
		C1090.8,343.4,1090.8,345.1,1088.9,346.2z M1075.1,354.1c-2.1,1.1-4.7,1.1-6.8,0c-1.9-1.1-1.9-2.9,0-4c2.2-1.1,4.7-1.1,6.8,0
		C1077,351.3,1077,353,1075.1,354.1z M1061.4,362.1c-2.1,1.1-4.7,1.1-6.8,0c-1.9-1.1-1.9-2.9,0-4c2.2-1.1,4.7-1.1,6.8,0
		C1063.3,359.2,1063.3,361,1061.4,362.1L1061.4,362.1z M1047.7,370c-2.1,1.1-4.7,1.1-6.8,0c-1.9-1.1-1.9-2.9,0-4
		c2.2-1.1,4.7-1.1,6.8,0C1049.6,367.1,1049.6,368.9,1047.7,370L1047.7,370z M1034,377.9c-2.1,1.1-4.7,1.1-6.8,0
		c-1.9-1.1-1.9-2.9,0-4c2.1-1.1,4.7-1.1,6.8,0C1035.9,375.1,1035.9,376.8,1034,377.9L1034,377.9z M1020.2,385.8
		c-2.1,1.1-4.7,1.1-6.8,0c-1.9-1.1-1.9-2.9,0-4c2.2-1.1,4.7-1.1,6.8,0C1022.2,383,1022.1,384.7,1020.2,385.8L1020.2,385.8z
		 M1006.5,393.7c-2.1,1.1-4.7,1.1-6.8,0c-1.9-1.1-1.9-2.9,0-4c2.1-1.1,4.7-1.1,6.8,0C1008.4,390.9,1008.4,392.7,1006.5,393.7
		L1006.5,393.7z M992.8,401.7c-2.1,1.1-4.7,1.1-6.8,0c-1.9-1.1-1.9-2.9,0-4c2.2-1.1,4.7-1.1,6.8,0
		C994.7,398.8,994.7,400.6,992.8,401.7L992.8,401.7z M979.1,409.6c-2.1,1.1-4.7,1.1-6.8,0c-1.9-1.1-1.9-2.9,0-4
		c2.2-1.1,4.7-1.1,6.8,0C981,406.7,981,408.5,979.1,409.6L979.1,409.6z M965.4,417.5c-2.1,1.1-4.7,1.1-6.8,0c-1.9-1.1-1.9-2.9,0-4
		c2.2-1.1,4.7-1.1,6.8,0C967.3,414.7,967.3,416.4,965.4,417.5L965.4,417.5z M951.6,425.4c-2.2,1.1-4.7,1.1-6.8,0
		c-1.9-1.1-1.9-2.9,0-4c2.2-1.1,4.7-1.1,6.8,0C953.5,422.6,953.5,424.4,951.6,425.4L951.6,425.4z M937.9,433.4
		c-2.1,1.1-4.7,1.1-6.8,0c-1.9-1.1-1.9-2.9,0-4c2.2-1.1,4.7-1.1,6.8,0C939.8,430.5,939.8,432.3,937.9,433.4L937.9,433.4z
		 M924.2,441.3c-2.1,1.1-4.7,1.1-6.8,0c-1.9-1.1-1.9-2.9,0-4c2.2-1.1,4.7-1.1,6.8,0C926.1,438.4,926.1,440.2,924.2,441.3
		L924.2,441.3z M910.5,449.2c-1.9,1.1-6.8,0-6.8,0s-1.9-2.9,0-4c2.2-1.1,4.7-1.1,6.8,0C912.4,446.3,912.4,448.1,910.5,449.2
		L910.5,449.2z"/>
	
		<linearGradient id="Trazado_2640_1_" gradientUnits="userSpaceOnUse" x1="-4.8769" y1="64.5673" x2="-5.0849" y2="63.9433" gradientTransform="matrix(201.7722 0 0 -116.519 1274.2715 8356.373)">
		<stop  offset="0" style="stop-color:#E6E9ED"/>
		<stop  offset="1" style="stop-color:#E6E9ED;stop-opacity:0"/>
	</linearGradient>
	<path id="Trazado_2640" class="st4" d="M675.2,285.1c-2.2,1.1-4.7,1.1-6.8,0c-1.9-1.1-1.9-2.9,0-4c2.2-1.1,4.7-1.1,6.8,0
		C677.1,282.2,677.1,284,675.2,285.1z M661.4,293c-2.2,1.1-4.7,1.1-6.8,0c-1.9-1.1-1.9-2.9,0-4c2.2-1.1,4.7-1.1,6.8,0
		C663.4,290.1,663.3,291.9,661.4,293L661.4,293z M647.7,300.9c-2.1,1.1-4.7,1.1-6.8,0c-1.9-1.1-1.9-2.9,0-4c2.1-1.1,4.7-1.1,6.8,0
		C649.6,298.1,649.6,299.8,647.7,300.9z M634,308.8c-2.1,1.1-4.7,1.1-6.8,0c-1.9-1.1-1.9-2.9,0-4c2.1-1.1,4.7-1.1,6.8,0
		C635.9,306,635.9,307.7,634,308.8L634,308.8z M620.3,316.8c-2.1,1.1-4.7,1.1-6.8,0c-1.9-1.1-1.9-2.9,0-4c2.2-1.1,4.7-1.1,6.8,0
		C622.2,313.9,622.2,315.7,620.3,316.8L620.3,316.8z M606.5,324.7c-2.1,1.1-4.7,1.1-6.8,0c-1.9-1.1-1.9-2.9,0-4
		c2.2-1.1,4.7-1.1,6.8,0C608.4,321.8,608.4,323.6,606.5,324.7L606.5,324.7z M592.8,332.6c-2.1,1.1-4.7,1.1-6.8,0
		c-1.9-1.1-1.9-2.9,0-4c2.2-1.1,4.7-1.1,6.8,0C594.7,329.7,594.7,331.5,592.8,332.6L592.8,332.6z M579.1,340.5
		c-2.2,1.1-4.7,1.1-6.8,0c-1.9-1.1-1.9-2.9,0-4c2.2-1.1,4.7-1.1,6.8,0C581,337.7,581,339.4,579.1,340.5L579.1,340.5z M565.4,348.4
		c-2.1,1.1-4.7,1.1-6.8,0c-1.9-1.1-1.9-2.9,0-4c2.2-1.1,4.7-1.1,6.8,0C567.3,345.6,567.3,347.3,565.4,348.4L565.4,348.4z
		 M551.6,356.4c-2.1,1.1-4.7,1.1-6.8,0c-1.9-1.1-1.9-2.9,0-4c2.2-1.1,4.7-1.1,6.8,0C553.6,353.5,553.6,355.3,551.6,356.4
		L551.6,356.4z M537.9,364.3c-2.1,1.1-4.7,1.1-6.8,0c-1.9-1.1-1.9-2.9,0-4c2.2-1.1,4.7-1.1,6.8,0
		C539.9,361.4,539.8,363.2,537.9,364.3L537.9,364.3z M524.2,372.2c-2.1,1.1-4.7,1.1-6.8,0c-1.9-1.1-1.9-2.9,0-4
		c2.2-1.1,4.7-1.1,6.8,0C526.1,369.4,526.1,371.1,524.2,372.2L524.2,372.2z M510.5,380.1c-2.1,1.1-4.7,1.1-6.8,0
		c-1.9-1.1-1.9-2.9,0-4c2.1-1.1,4.7-1.1,6.8,0C512.4,377.3,512.4,379,510.5,380.1L510.5,380.1z M496.8,388.1c-2.2,1.1-4.7,1.1-6.8,0
		c-1.9-1.1-1.9-2.9,0-4c2.2-1.1,4.7-1.1,6.8,0C498.7,385.2,498.7,387,496.8,388.1L496.8,388.1z M483,396c-2.1,1.1-4.7,1.1-6.8,0
		c-1.9-1.1-1.9-2.9,0-3.9c2.1-1.1,4.7-1.1,6.8,0C484.9,393.1,484.9,394.9,483,396L483,396z"/>
	
		<linearGradient id="Trazado_2644_1_" gradientUnits="userSpaceOnUse" x1="-7.0152" y1="66.387" x2="-7.6258" y2="66.387" gradientTransform="matrix(105.7317 0 0 -61.0613 1266.5854 4488.1079)">
		<stop  offset="0" style="stop-color:#C8D1DE"/>
		<stop  offset="1" style="stop-color:#E6E9ED;stop-opacity:0"/>
	</linearGradient>
	<path id="Trazado_2644" class="st5" d="M653.5,420.6c2.1,1.1,4.7,1.1,6.8,0c1.9-1.1,1.9-2.9,0-4c-2.2-1.1-4.7-1.1-6.8,0
		C651.6,417.7,651.6,419.5,653.5,420.6z M667.2,424.5c2.2-1.1,4.7-1.1,6.8,0c1.9,1.1,1.9,2.9,0,4c-2.2,1.1-4.7,1.1-6.8,0
		C665.4,427.4,665.3,425.6,667.2,424.5L667.2,424.5z M681,432.5c2.2-1.1,4.7-1.1,6.8,0c1.9,1.1,1.9,2.9,0,4c-2.1,1.1-4.7,1.1-6.8,0
		C679.1,435.3,679.1,433.6,681,432.5L681,432.5z M694.7,440.4c2.1-1.1,4.7-1.1,6.8,0c1.9,1.1,1.9,2.9,0,4c-2.1,1.1-4.7,1.1-6.8,0
		C692.8,443.2,692.8,441.5,694.7,440.4L694.7,440.4z M708.4,448.3c2.2-1.1,4.7-1.1,6.8,0c1.9,1.1,1.9,2.9,0,4
		c-2.1,1.1-4.7,1.1-6.8,0C706.5,451.2,706.5,449.4,708.4,448.3L708.4,448.3z"/>
	
		<linearGradient id="Trazado_2645_1_" gradientUnits="userSpaceOnUse" x1="-7.36" y1="66.1926" x2="-8.36" y2="66.1926" gradientTransform="matrix(105.7256 0 0 -61.064 1089.2028 4464.1602)">
		<stop  offset="0" style="stop-color:#E6E9ED"/>
		<stop  offset="1" style="stop-color:#E6E9ED;stop-opacity:0"/>
	</linearGradient>
	<path id="Trazado_2645" class="st6" d="M476.2,396.4c2.1,1.1,4.7,1.1,6.8,0c1.9-1.1,1.9-2.9,0-4c-2.2-1.1-4.7-1.1-6.8,0
		C474.3,393.6,474.3,395.3,476.2,396.4z M489.8,400.4c2.2-1.1,4.7-1.1,6.8,0c1.9,1.1,1.9,2.9,0,4c-2.2,1.1-4.7,1.1-6.8,0
		C488,403.3,488,401.5,489.8,400.4L489.8,400.4z M503.6,408.3c2.2-1.1,4.7-1.1,6.8,0c1.9,1.1,1.9,2.9,0,4c-2.1,1.1-4.7,1.1-6.8,0
		C501.7,411.2,501.7,409.4,503.6,408.3L503.6,408.3z M517.3,416.2c2.1-1.1,4.7-1.1,6.8,0c1.9,1.1,1.9,2.9,0,4
		c-2.1,1.1-4.7,1.1-6.8,0C515.4,419.1,515.4,417.3,517.3,416.2L517.3,416.2z M531,424.2c2.2-1.1,4.7-1.1,6.8,0c1.9,1.1,1.9,2.9,0,4
		c-2.1,1.1-4.7,1.1-6.8,0C529.1,427,529.1,425.2,531,424.2L531,424.2z M544.8,432.1c2.2-1.1,4.7-1.1,6.8,0c1.9,1.1,1.9,2.9,0,3.9
		c-2.1,1.1-4.7,1.1-6.8,0C542.9,434.9,542.9,433.2,544.8,432.1L544.8,432.1z M558.5,440c2.2-1.1,4.7-1.1,6.8,0c1.9,1.1,1.9,2.9,0,4
		c-2.1,1.1-4.7,1.1-6.8,0C556.6,442.9,556.6,441.1,558.5,440L558.5,440z M572.2,447.9c2.2-1.1,4.7-1.1,6.8,0c1.9,1.1,1.9,2.9,0,4
		c-2.1,1.1-4.7,1.1-6.8,0C570.3,450.8,570.3,449,572.2,447.9L572.2,447.9z"/>
	
		<linearGradient id="Trazado_2655_1_" gradientUnits="userSpaceOnUse" x1="-7.36" y1="66.1926" x2="-8.36" y2="66.1926" gradientTransform="matrix(105.7256 0 0 -61.064 705.2028 4426.1602)">
		<stop  offset="0" style="stop-color:#E6E9ED"/>
		<stop  offset="1" style="stop-color:#E6E9ED;stop-opacity:0"/>
	</linearGradient>
	<path id="Trazado_2655" class="st7" d="M92.2,358.4c2.1,1.1,4.7,1.1,6.8,0c1.9-1.1,1.9-2.9,0-4c-2.2-1.1-4.7-1.1-6.8,0
		C90.3,355.6,90.3,357.3,92.2,358.4z M105.8,362.4c2.2-1.1,4.7-1.1,6.8,0c1.9,1.1,1.9,2.9,0,4c-2.2,1.1-4.7,1.1-6.8,0
		C104,365.3,104,363.5,105.8,362.4L105.8,362.4z M119.6,370.3c2.2-1.1,4.7-1.1,6.8,0c1.9,1.1,1.9,2.9,0,4c-2.1,1.1-4.7,1.1-6.8,0
		C117.7,373.2,117.7,371.4,119.6,370.3L119.6,370.3z M133.3,378.2c2.1-1.1,4.7-1.1,6.8,0c1.9,1.1,1.9,2.9,0,4
		c-2.1,1.1-4.7,1.1-6.8,0C131.4,381.1,131.4,379.3,133.3,378.2L133.3,378.2z M147,386.2c2.2-1.1,4.7-1.1,6.8,0c1.9,1.1,1.9,2.9,0,4
		c-2.1,1.1-4.7,1.1-6.8,0C145.1,389,145.1,387.2,147,386.2L147,386.2z M160.8,394.1c2.2-1.1,4.7-1.1,6.8,0c1.9,1.1,1.9,2.9,0,3.9
		c-2.1,1.1-4.7,1.1-6.8,0C158.9,396.9,158.9,395.2,160.8,394.1L160.8,394.1z M174.5,402c2.2-1.1,4.7-1.1,6.8,0c1.9,1.1,1.9,2.9,0,4
		c-2.1,1.1-4.7,1.1-6.8,0C172.6,404.9,172.6,403.1,174.5,402L174.5,402z M188.2,409.9c2.2-1.1,4.7-1.1,6.8,0c1.9,1.1,1.9,2.9,0,4
		c-2.1,1.1-4.7,1.1-6.8,0C186.3,412.8,186.3,411,188.2,409.9L188.2,409.9z"/>
	
		<linearGradient id="Trazado_2647_1_" gradientUnits="userSpaceOnUse" x1="-2.8187" y1="63.7473" x2="-1.9337" y2="62.8793" gradientTransform="matrix(105.731 0 0 -61.0621 892.4713 4441.3042)">
		<stop  offset="0" style="stop-color:#E6E9ED"/>
		<stop  offset="1" style="stop-color:#E6E9ED;stop-opacity:0"/>
	</linearGradient>
	<path id="Trazado_2647" class="st8" d="M279.4,373.7c2.1,1.1,4.7,1.1,6.8,0c1.9-1.1,1.9-2.9,0-4c-2.2-1.1-4.7-1.1-6.8,0
		C277.5,370.8,277.5,372.6,279.4,373.7z M293.1,377.7c2.2-1.1,4.7-1.1,6.8,0c1.9,1.1,1.9,2.9,0,4c-2.2,1.1-4.7,1.1-6.8,0
		C291.3,380.5,291.2,378.8,293.1,377.7L293.1,377.7z M306.8,385.6c2.2-1.1,4.7-1.1,6.8,0c1.9,1.1,1.9,2.9,0,4
		c-2.1,1.1-4.7,1.1-6.8,0C305,388.4,305,386.7,306.8,385.6L306.8,385.6z M320.6,393.5c2.1-1.1,4.7-1.1,6.8,0c1.9,1.1,1.9,2.9,0,4
		c-2.1,1.1-4.7,1.1-6.8,0C318.7,396.4,318.7,394.6,320.6,393.5L320.6,393.5z M334.3,401.4c2.2-1.1,4.7-1.1,6.8,0
		c1.9,1.1,1.9,2.9,0,4c-2.1,1.1-4.7,1.1-6.8,0C332.4,404.3,332.4,402.5,334.3,401.4L334.3,401.4z M348,409.4c2.2-1.1,4.7-1.1,6.8,0
		c1.9,1.1,1.9,2.9,0,3.9c-2.1,1.1-4.7,1.1-6.8,0C346.1,412.2,346.1,410.5,348,409.4L348,409.4z M361.7,417.3c2.2-1.1,4.7-1.1,6.8,0
		c1.9,1.1,1.9,2.9,0,4c-2.1,1.1-4.7,1.1-6.8,0C359.8,420.1,359.8,418.4,361.7,417.3L361.7,417.3z M375.5,425.2
		c2.2-1.1,4.7-1.1,6.8,0c1.9,1.1,1.9,2.9,0,4c-2.1,1.1-4.7,1.1-6.8,0C373.6,428.1,373.6,426.3,375.5,425.2L375.5,425.2z"/>
	
		<linearGradient id="Trazado_2651_1_" gradientUnits="userSpaceOnUse" x1="-4.0108" y1="64.9203" x2="-3.4799" y2="64.3996" gradientTransform="matrix(105.731 0 0 -61.0621 1594.4713 4491.3042)">
		<stop  offset="0" style="stop-color:#E6E9ED"/>
		<stop  offset="1" style="stop-color:#E6E9ED;stop-opacity:0"/>
	</linearGradient>
	<path id="Trazado_2651" class="st9" d="M981.4,423.7c2.1,1.1,4.7,1.1,6.8,0c1.9-1.1,1.9-2.9,0-4c-2.2-1.1-4.7-1.1-6.8,0
		C979.5,420.8,979.5,422.6,981.4,423.7z M995.1,427.7c2.2-1.1,4.7-1.1,6.8,0c1.9,1.1,1.9,2.9,0,4c-2.2,1.1-4.7,1.1-6.8,0
		C993.3,430.5,993.2,428.8,995.1,427.7L995.1,427.7z M1008.8,435.6c2.2-1.1,4.7-1.1,6.8,0c1.9,1.1,1.9,2.9,0,4
		c-2.1,1.1-4.7,1.1-6.8,0C1007,438.4,1007,436.7,1008.8,435.6L1008.8,435.6z M1022.6,443.5c2.1-1.1,4.7-1.1,6.8,0
		c1.9,1.1,1.9,2.9,0,4c-2.1,1.1-4.7,1.1-6.8,0C1020.7,446.4,1020.7,444.6,1022.6,443.5L1022.6,443.5z M1036.3,455.4
		c-1.9-1.1-1.9-2.9,0-4l0,0c2.2-1.1,4.7-1.1,6.8,0c1.9,1.1,1.9,2.9,0,4"/>
</g>
<g id="Grupo_1235" transform="translate(-2035.908 892.8)">
	<g id="Grupo_1233" transform="translate(2958.403 -844.363)">
		<g id="Grupo_1227" transform="translate(0 54.818)">
			<line id="Línea_288" class="st10" x1="-141.5" y1="303.6" x2="-145.9" y2="301.1"/>
			<path id="Trazado_2582" class="st10" d="M-141.5,303.6l0.2-69.9l100.7-58.5l-0.2,69.9"/>
			<path id="Trazado_2583" class="st10" d="M-74.3,264.3l0-36l17.8-10.3l0,36.1"/>
			<line id="Línea_289" class="st10" x1="-91.5" y1="162.8" x2="-40.6" y2="175.2"/>
			<path id="Trazado_2584" class="st11" d="M-205.7,218l100.7-58.5l13.5,3.3"/>
			<line id="Línea_290" class="st10" x1="-145.7" y1="232.6" x2="-141.3" y2="233.7"/>
			<path id="Trazado_2585" class="st11" d="M-145.9,301.1l-60-34.6l0.1-48.4l60,14.6"/>
			<path id="Trazado_2586" class="st10" d="M-40.8,245.1l-64.4-37.1l0.1-48.4"/>
			<path id="Trazado_2587" class="st11" d="M-198.9,270.4l48.8,28.2l0.1-31.6l-48.8-28.2L-198.9,270.4z"/>
			<g id="Grupo_1225" transform="translate(7.02 81.665)">
				<line id="Línea_291" class="st12" x1="-157" y1="187.7" x2="-205.8" y2="159.5"/>
				<line id="Línea_292" class="st12" x1="-157" y1="190.7" x2="-205.8" y2="162.5"/>
				<line id="Línea_293" class="st12" x1="-157" y1="193.7" x2="-205.8" y2="165.6"/>
				<line id="Línea_294" class="st12" x1="-157" y1="196.8" x2="-205.8" y2="168.6"/>
				<line id="Línea_295" class="st12" x1="-157" y1="199.8" x2="-205.8" y2="171.6"/>
				<line id="Línea_296" class="st12" x1="-157" y1="202.8" x2="-205.8" y2="174.7"/>
				<line id="Línea_297" class="st12" x1="-157" y1="205.9" x2="-205.8" y2="177.7"/>
				<line id="Línea_298" class="st12" x1="-157" y1="208.9" x2="-205.8" y2="180.7"/>
				<line id="Línea_299" class="st12" x1="-157" y1="211.9" x2="-205.8" y2="183.7"/>
				<line id="Línea_300" class="st12" x1="-157" y1="215" x2="-205.8" y2="186.8"/>
			</g>
			<g id="Grupo_1226" transform="translate(4.237 1.193)">
				<line id="Línea_301" class="st10" x1="-149.9" y1="228.1" x2="-141.4" y2="230.2"/>
				<line id="Línea_302" class="st12" x1="-205.8" y1="214.5" x2="-149.9" y2="228.1"/>
				<line id="Línea_303" class="st10" x1="-149.9" y1="223.5" x2="-135.8" y2="226.9"/>
				<line id="Línea_304" class="st12" x1="-200.3" y1="211.2" x2="-149.9" y2="223.5"/>
				<line id="Línea_305" class="st10" x1="-158.4" y1="216.8" x2="-130.3" y2="223.7"/>
				<line id="Línea_306" class="st12" x1="-194.7" y1="208" x2="-158.4" y2="216.8"/>
				<line id="Línea_307" class="st10" x1="-172.2" y1="208.9" x2="-124.7" y2="220.5"/>
				<line id="Línea_308" class="st12" x1="-189.1" y1="204.8" x2="-172.2" y2="208.9"/>
				<line id="Línea_309" class="st10" x1="-170.1" y1="204.8" x2="-119.1" y2="217.2"/>
				<line id="Línea_310" class="st12" x1="-183.5" y1="201.5" x2="-170.1" y2="204.8"/>
				<line id="Línea_311" class="st10" x1="-164.1" y1="201.7" x2="-113.5" y2="214"/>
				<line id="Línea_312" class="st12" x1="-178" y1="198.3" x2="-164.1" y2="201.7"/>
				<line id="Línea_313" class="st10" x1="-158.5" y1="198.4" x2="-108" y2="210.8"/>
				<line id="Línea_314" class="st12" x1="-172.4" y1="195.1" x2="-158.5" y2="198.4"/>
				<line id="Línea_315" class="st10" x1="-153.4" y1="195.1" x2="-102.4" y2="207.5"/>
				<line id="Línea_316" class="st12" x1="-166.8" y1="191.8" x2="-153.4" y2="195.1"/>
				<line id="Línea_317" class="st10" x1="-147.8" y1="191.9" x2="-96.8" y2="204.3"/>
				<line id="Línea_318" class="st12" x1="-161.2" y1="188.6" x2="-147.8" y2="191.9"/>
				<line id="Línea_319" class="st10" x1="-142.3" y1="188.6" x2="-91.2" y2="201.1"/>
				<line id="Línea_320" class="st12" x1="-155.7" y1="185.4" x2="-142.3" y2="188.6"/>
				<line id="Línea_321" class="st10" x1="-136.7" y1="185.4" x2="-85.7" y2="197.8"/>
				<line id="Línea_322" class="st12" x1="-150.1" y1="182.1" x2="-136.7" y2="185.4"/>
				<line id="Línea_323" class="st10" x1="-131.2" y1="182.1" x2="-80.1" y2="194.6"/>
				<line id="Línea_324" class="st12" x1="-144.5" y1="178.9" x2="-131.2" y2="182.1"/>
				<line id="Línea_325" class="st10" x1="-125.6" y1="178.9" x2="-74.5" y2="191.4"/>
				<line id="Línea_326" class="st12" x1="-138.9" y1="175.7" x2="-125.6" y2="178.9"/>
				<line id="Línea_327" class="st10" x1="-120" y1="175.7" x2="-68.9" y2="188.1"/>
				<line id="Línea_328" class="st12" x1="-133.4" y1="172.4" x2="-120" y2="175.7"/>
				<line id="Línea_329" class="st10" x1="-114.5" y1="172.4" x2="-63.4" y2="184.9"/>
				<line id="Línea_330" class="st12" x1="-127.8" y1="169.2" x2="-114.5" y2="172.4"/>
				<line id="Línea_331" class="st10" x1="-108.9" y1="169.2" x2="-57.8" y2="181.7"/>
				<line id="Línea_332" class="st12" x1="-122.2" y1="166" x2="-108.9" y2="169.2"/>
				<line id="Línea_333" class="st10" x1="-103.3" y1="166" x2="-52.2" y2="178.4"/>
				<line id="Línea_334" class="st12" x1="-116.6" y1="162.7" x2="-103.3" y2="166"/>
				<line id="Línea_335" class="st10" x1="-97.8" y1="162.7" x2="-46.6" y2="175.2"/>
				<line id="Línea_336" class="st12" x1="-111.1" y1="159.5" x2="-97.8" y2="162.7"/>
			</g>
			<line id="Línea_337" class="st10" x1="-105.1" y1="208" x2="-205.8" y2="266.5"/>
		</g>
		<g id="Grupo_1228" transform="translate(59.946 34.236)">
			<path id="Trazado_2588" class="st11" d="M43.9,255.1l-0.2,75.6l-120.8,70.2l0.2-83"/>
			<path id="Trazado_2589" class="st10" d="M-76.8,304L44,233.8l-0.1,21.2"/>
			<path id="Trazado_2590" class="st10" d="M-205.6,229.7l120.8-70.2L44,233.8"/>
			<path id="Trazado_2591" class="st10" d="M-205.6,326.6l120.8-70.2L44,330.7"/>
			<path id="Trazado_2592" class="st11" d="M-76.9,317.8l-0.2,83l-128.7-74.3l0.2-83"/>
			<path id="Trazado_2593" class="st10" d="M-205.6,243.5l0-13.8L-76.8,304l0,13.8"/>
			<path id="Trazado_2594" class="st10" d="M-127.9,329.6l0-7.1l-43.6-25.2l-0.1,23.2"/>
			<path id="Trazado_2595" class="st11" d="M-171.5,320.5l-0.1,25.8l43.6,25.2l0.1-41.9"/>
			<line id="Línea_338" class="st10" x1="-84.7" y1="256.3" x2="-84.7" y2="159.5"/>
			<line id="Línea_339" class="st11" x1="43.7" y1="323.6" x2="-77.1" y2="393.8"/>
			<line id="Línea_340" class="st10" x1="-84.7" y1="249.2" x2="44" y2="323.6"/>
			<line id="Línea_341" class="st11" x1="-171.6" y1="339.2" x2="-205.8" y2="319.5"/>
			<line id="Línea_342" class="st11" x1="-77.1" y1="393.8" x2="-128" y2="364.4"/>
		</g>
		<g id="Grupo_1229" transform="translate(66.208 155.414)">
			<path id="Trazado_2596" class="st11" d="M-205.8,183.1l25.2-14.6l29-9l-25.2,14.6L-205.8,183.1z"/>
			<path id="Trazado_2597" class="st11" d="M-176.9,174.1l25.2-14.6l28.8,42.4l-25.2,14.6L-176.9,174.1z"/>
			<path id="Trazado_2598" class="st11" d="M-176.9,174.1l28.8,42.4l-57.8-33.4L-176.9,174.1z"/>
		</g>
		<g id="Grupo_1232" transform="translate(35.408)">
			<path id="Trazado_2599" class="st11" d="M-205.8,263.5l135.9-79l80.2-24.9l-135.9,79L-205.8,263.5z"/>
			<path id="Trazado_2600" class="st11" d="M-125.7,238.5l135.9-79L90,276.8l-135.9,79L-125.7,238.5z"/>
			<path id="Trazado_2601" class="st11" d="M-125.7,238.5l79.8,117.3l-159.9-92.3L-125.7,238.5z"/>
			<g id="Grupo_1230" transform="translate(85.442 2.775)">
				<line id="Línea_343" class="st12" x1="-79.7" y1="159.5" x2="0" y2="276.8"/>
				<line id="Línea_344" class="st12" x1="-88.1" y1="164.4" x2="-8.4" y2="281.7"/>
				<line id="Línea_345" class="st12" x1="-96.6" y1="169.3" x2="-16.8" y2="286.6"/>
				<line id="Línea_346" class="st12" x1="-105" y1="174.2" x2="-25.2" y2="291.4"/>
				<line id="Línea_347" class="st12" x1="-113.4" y1="179" x2="-33.6" y2="296.3"/>
				<line id="Línea_348" class="st12" x1="-121.8" y1="183.9" x2="-42" y2="301.2"/>
				<line id="Línea_349" class="st12" x1="-130.2" y1="188.8" x2="-50.4" y2="306.1"/>
				<line id="Línea_350" class="st12" x1="-138.6" y1="193.7" x2="-58.8" y2="311"/>
				<line id="Línea_351" class="st12" x1="-147" y1="198.6" x2="-67.2" y2="315.9"/>
				<line id="Línea_352" class="st12" x1="-155.4" y1="203.5" x2="-75.6" y2="320.8"/>
				<line id="Línea_353" class="st12" x1="-163.8" y1="208.4" x2="-84.1" y2="325.7"/>
				<line id="Línea_354" class="st12" x1="-172.2" y1="213.3" x2="-92.5" y2="330.5"/>
				<line id="Línea_355" class="st12" x1="-180.6" y1="218.1" x2="-100.9" y2="335.4"/>
				<line id="Línea_356" class="st12" x1="-189" y1="223" x2="-109.3" y2="340.3"/>
				<line id="Línea_357" class="st12" x1="-197.4" y1="227.9" x2="-117.7" y2="345.2"/>
				<line id="Línea_358" class="st12" x1="-205.8" y1="232.8" x2="-126.1" y2="350.1"/>
			</g>
			<g id="Grupo_1231" transform="translate(5.275 2.775)">
				<line id="Línea_359" class="st12" x1="0.3" y1="159.5" x2="-79.8" y2="184.4"/>
				<line id="Línea_360" class="st12" x1="-8.1" y1="164.4" x2="-88.2" y2="189.3"/>
				<line id="Línea_361" class="st12" x1="-16.5" y1="169.2" x2="-96.6" y2="194.2"/>
				<line id="Línea_362" class="st12" x1="-24.9" y1="174.1" x2="-105" y2="199.1"/>
				<line id="Línea_363" class="st12" x1="-33.3" y1="179" x2="-113.4" y2="203.9"/>
				<line id="Línea_364" class="st12" x1="-41.7" y1="183.9" x2="-121.8" y2="208.8"/>
				<line id="Línea_365" class="st12" x1="-50.1" y1="188.7" x2="-130.2" y2="213.7"/>
				<line id="Línea_366" class="st12" x1="-58.5" y1="193.6" x2="-138.6" y2="218.6"/>
				<line id="Línea_367" class="st12" x1="-66.9" y1="198.5" x2="-147" y2="223.4"/>
				<line id="Línea_368" class="st12" x1="-75.3" y1="203.4" x2="-155.4" y2="228.3"/>
				<line id="Línea_369" class="st12" x1="-83.7" y1="208.2" x2="-163.8" y2="233.2"/>
				<line id="Línea_370" class="st12" x1="-92.1" y1="213.1" x2="-172.2" y2="238.1"/>
				<line id="Línea_371" class="st12" x1="-100.5" y1="218" x2="-180.6" y2="242.9"/>
				<line id="Línea_372" class="st12" x1="-108.9" y1="222.9" x2="-189" y2="247.8"/>
				<line id="Línea_373" class="st12" x1="-117.3" y1="227.7" x2="-197.4" y2="252.7"/>
				<line id="Línea_374" class="st12" x1="-125.7" y1="232.6" x2="-205.8" y2="257.6"/>
			</g>
		</g>
	</g>
	<g id="Grupo_1234" transform="translate(2910.074 -892.8)">
		
			<image style="overflow:visible;enable-background:new    ;" width="1337" height="1162" id="Rectángulo_1756" xlink:href="B4E7D5936DD19049.png"  transform="matrix(0.3206 0 0 0.3206 -205.8447 159.5)">
		</image>
	</g>
</g>
</svg>
