<?xml version="1.0" encoding="utf-8"?>
<!-- Generator: Adobe Illustrator 23.0.3, SVG Export Plug-In . SVG Version: 6.00 Build 0)  -->
<svg version="1.1" id="Capa_1" xmlns="http://www.w3.org/2000/svg" xmlns:xlink="http://www.w3.org/1999/xlink" x="0px" y="0px"
	 viewBox="0 0 227.2 296" style="enable-background:new 0 0 227.2 296;" xml:space="preserve">
<style type="text/css">
	.st0{fill:#3B536D;}
</style>
<title>seguros-online</title>
<path class="st0" d="M10.8,0C4.9-0.1,0.1,4.5,0,10.3v275.3c0.1,5.8,4.9,10.4,10.8,10.3h205.7c5.8,0.1,10.6-4.5,10.8-10.3V10.3
	C227,4.5,222.2-0.1,216.4,0H10.8z M10.8,6.9h205.7c2-0.2,3.7,1.3,3.9,3.3c0,0.1,0,0.1,0,0.2v275.3c-0.1,2-1.7,3.5-3.7,3.5
	c-0.1,0-0.1,0-0.2,0H10.8c-2,0.2-3.7-1.3-3.9-3.3c0-0.1,0-0.1,0-0.2V10.3c0.1-2,1.7-3.5,3.7-3.5C10.6,6.9,10.7,6.9,10.8,6.9z
	 M65.4,41.3c-1.9,0-3.4,1.5-3.4,3.4l0,0v7.1c-4.9,0.4-9.5,2.2-13.4,5.2c-4.6,3.8-7.2,9.4-7.1,15.3c-0.1,5.9,3,11.3,8.1,14.3
	c4.5,2.8,9.7,4.1,14.5,6c7.9,2.9,18.3,6,18.4,14.1c0.1,3.8-1.7,7.5-4.7,9.8c-3.5,2.7-7.9,4.1-12.4,4c-7.2-0.1-13.8-3.8-17.6-9.9
	c-0.8-1.7-2.9-2.5-4.6-1.7c-0.1,0-0.2,0.1-0.2,0.1c-1.7,1.1-2.1,3.4-0.9,5.1c0,0,0.1,0.1,0.1,0.1c4.4,7.1,11.7,11.9,20,12.9
	c0,0.1-0.1,0.2-0.1,0.3v6.9c0.1,1.9,1.7,3.4,3.6,3.3c1.8-0.1,3.2-1.5,3.3-3.3v-7.1c4.9-0.4,9.5-2.3,13.3-5.3
	c4.6-3.7,7.2-9.3,7.1-15.2c0.1-5.9-3-11.4-8.1-14.4c-4.5-2.8-9.7-4.1-14.5-6c-7.8-2.9-18.3-6-18.4-14c-0.1-3.9,1.7-7.5,4.7-9.9
	c3-2.4,7.3-3.9,12.4-3.9c7.2,0,13.8,3.7,17.6,9.8c0.8,1.7,2.8,2.5,4.6,1.7c0.1,0,0.2-0.1,0.3-0.1c1.7-1.1,2.1-3.4,0.9-5
	c0,0-0.1-0.1-0.1-0.1C84.4,57.7,77,53,68.7,52c0-0.1,0.1-0.2,0.1-0.3v-6.9C68.8,42.8,67.3,41.3,65.4,41.3z M120.5,68.8
	c-1.9,0-3.4,1.5-3.4,3.4c0,1.9,1.5,3.4,3.4,3.4h62c1.9,0,3.4-1.5,3.4-3.4c0-1.9-1.5-3.4-3.4-3.4H120.5z M120.5,106.7
	c-1.9,0-3.4,1.5-3.4,3.4c0,1.9,1.5,3.4,3.4,3.4h62c1.9,0,3.4-1.5,3.4-3.4c0-1.9-1.5-3.4-3.4-3.4H120.5z M44.7,144.6
	c-1.9,0-3.4,1.5-3.4,3.4s1.5,3.4,3.4,3.4h137.7c1.9,0,3.4-1.5,3.4-3.4s-1.5-3.4-3.4-3.4H44.7z M44.7,182.4c-1.9,0-3.4,1.5-3.4,3.4
	s1.5,3.4,3.4,3.4h137.7c1.9,0,3.4-1.5,3.4-3.4s-1.5-3.4-3.4-3.4H44.7z M123.3,213.4c-1.1,0.2-2.1,0.9-2.6,2l-16.6,39.8l-12,3
	c-1.8,0.5-2.9,2.4-2.5,4.2s2.4,2.9,4.2,2.5l13.8-3.4c1.1-0.3,1.9-1,2.4-2l13.8-33.1l10.8,29.6c0.9,2.4,5,2.7,6.2,0.4l13.9-25
	l11,24.7c0.7,1.5,2.4,2.3,4,1.9l13.8-3.4c1.8-0.5,2.9-2.4,2.5-4.2c-0.5-1.8-2.4-2.9-4.2-2.5l0,0l-11,2.7L158,222.3
	c-1-2.3-4.9-2.5-6.1-0.3l-13.6,24.4l-11.2-30.8C126.2,213.6,124.8,213.1,123.3,213.4L123.3,213.4z"/>
</svg>
