<?xml version="1.0" encoding="utf-8"?>
<!-- Generator: Adobe Illustrator 23.0.3, SVG Export Plug-In . SVG Version: 6.00 Build 0)  -->
<svg version="1.1" id="Capa_1" xmlns="http://www.w3.org/2000/svg" xmlns:xlink="http://www.w3.org/1999/xlink" x="0px" y="0px"
	 viewBox="0 0 300 300" style="enable-background:new 0 0 300 300;" xml:space="preserve">
<style type="text/css">
	.st0{fill:#6CBB8E;}
</style>
<title>valor-comercial</title>
<path class="st0" d="M150,0C67.3,0,0,67.3,0,150s67.3,150,150,150s150-67.4,150-150S232.6,0,150,0z M150,32.1
	c65.1,0,117.9,52.8,117.9,117.9S215.1,267.9,150,267.9S32.1,215.1,32.1,150C32,85,84.6,32.3,149.5,32.1
	C149.7,32.1,149.8,32.1,150,32.1z M150,64.3c-8.9,0-16.1,7.2-16.1,16c0,0,0,0,0,0v2.3c-6,1.7-11.7,4.6-16.6,8.5
	c-9.5,7.9-15,19.6-15.1,32c0,13.8,8.8,26,17.7,31.5s17.5,7.5,24.3,10.2c8.8,3.5,16.1,5.9,19.2,7.9c6.4,9.8-6.2,14.6-13.4,14.7
	c-7.4-0.1-14.2-3.9-18.2-10c-3.8-8.1-15-11.6-22.6-7s-10,16.2-4.7,23.4c6.7,11,17.1,19.2,29.3,23.1v2.7c0,8.9,7.2,16.1,16.1,16.1
	s16.1-7.2,16.1-16.1c0,0,0,0,0,0v-2.2c6.1-1.7,11.8-4.7,16.7-8.7c9.5-7.9,15-19.6,15.1-32c0-13.8-8.8-26-17.8-31.5
	s-17.5-7.7-24.3-10.4c-8.8-3.5-16.1-5.8-19.2-7.7c-6.4-9.9,6.3-14.7,13.6-14.7c7.4,0.1,14.2,3.9,18.2,10c4,7.8,14.8,10.9,22.3,6.4
	c7.4-4.5,9.9-15.8,4.9-22.9c-6.6-11.1-17.1-19.4-29.5-23.3v-2.3C166.1,71.5,158.9,64.3,150,64.3C150,64.3,150,64.3,150,64.3z"/>
</svg>
