<?xml version="1.0" encoding="utf-8"?>
<!-- Generator: Adobe Illustrator 23.0.3, SVG Export Plug-In . SVG Version: 6.00 Build 0)  -->
<svg version="1.1" id="Capa_1" xmlns="http://www.w3.org/2000/svg" xmlns:xlink="http://www.w3.org/1999/xlink" x="0px" y="0px"
	 viewBox="0 0 238 299.6" style="enable-background:new 0 0 238 299.6;" xml:space="preserve">
<style type="text/css">
	.st0{fill:#6CBB8E;}
</style>
<title>valor-renta</title>
<path class="st0" d="M238,299.6H0l0.1-91c0-0.8,5.4-81.9,118.9-81.9s118.9,79.8,119,80.6v0.7V299.6z M28,271.6h182v-63.1
	c-0.4-4.2-6.9-53.8-91-53.8c-84.3,0-90.6,51.3-90.9,55.1L28,271.6z"/>
<path class="st0" d="M119,120.4c-33.2,0-60.2-26.9-60.2-60.2S85.8,0,119,0s60.2,26.9,60.2,60.2C179.2,93.4,152.2,120.3,119,120.4z
	 M119,28c-17.8,0-32.2,14.4-32.2,32.2s14.4,32.2,32.2,32.2s32.2-14.4,32.2-32.2c0,0,0,0,0,0C151.2,42.4,136.8,28,119,28z"/>
</svg>
