<?xml version="1.0" encoding="utf-8"?>
<!-- Generator: Adobe Illustrator 23.0.3, SVG Export Plug-In . SVG Version: 6.00 Build 0)  -->
<svg version="1.1" id="Capa_1" xmlns="http://www.w3.org/2000/svg" xmlns:xlink="http://www.w3.org/1999/xlink" x="0px" y="0px"
	 viewBox="0 0 298 298" style="enable-background:new 0 0 298 298;" xml:space="preserve">
<style type="text/css">
	.st0{fill:#3B536D;}
</style>
<title>valoriza-cartera</title>
<path class="st0" d="M110.9,0C65,0,27.8,37.2,27.8,83.2s37.2,83.2,83.2,83.2s83.2-37.2,83.2-83.2C194.1,37.3,156.8,0,110.9,0z
	 M110.9,6.9c42.1,0,76.2,34.1,76.2,76.2s-34.1,76.2-76.2,76.2s-76.2-34.1-76.2-76.2c0-42.1,34.1-76.2,76.1-76.2
	C110.9,6.9,110.9,6.9,110.9,6.9z M110.9,34.6c-1.9,0-3.5,1.6-3.5,3.5c0,0,0,0,0,0v7.1c-4.9,0.4-9.6,2.2-13.4,5.2
	c-4.6,3.8-7.2,9.4-7.2,15.4c-0.1,5.9,3,11.4,8.2,14.4c4.5,2.8,9.8,4.1,14.6,6.1c7.9,2.9,18.4,6.1,18.5,14.2c0.1,3.9-1.7,7.5-4.8,9.9
	c-3.6,2.7-8,4.1-12.4,4c-7.2-0.1-13.9-3.9-17.8-10c-0.8-1.8-2.8-2.5-4.6-1.8c-0.1,0-0.2,0.1-0.3,0.1c-1.7,1.1-2.2,3.4-1.1,5
	c0.1,0.1,0.1,0.2,0.2,0.2c4.4,7.2,11.8,12,20.1,13c0,0.1-0.1,0.2-0.1,0.3v6.9c0.1,1.9,1.7,3.4,3.7,3.3c1.8-0.1,3.2-1.5,3.3-3.3v-6.9
	c0-0.1,0-0.1,0-0.2c4.9-0.4,9.6-2.3,13.4-5.3c4.6-3.7,7.2-9.4,7.1-15.3c0.1-5.9-3-11.5-8.1-14.5c-4.5-2.8-9.8-4.1-14.6-6.1
	c-7.9-2.9-18.4-6.1-18.5-14.1c-0.1-3.9,1.7-7.6,4.8-10c3-2.4,7.3-3.9,12.4-3.9c7.2,0,13.9,3.8,17.8,9.8c0.8,1.8,2.8,2.5,4.6,1.8
	c0.1,0,0.2-0.1,0.3-0.1c1.7-1.1,2.1-3.4,0.9-5.1c0,0-0.1-0.1-0.1-0.1c-4.4-7.1-11.8-11.9-20.1-12.9c0-0.1,0.1-0.2,0.1-0.3v-6.9
	C114.4,36.2,112.9,34.7,110.9,34.6C110.9,34.7,110.9,34.7,110.9,34.6z M232.2,104c-1.9-0.2-3.6,1.2-3.8,3.1s1.2,3.6,3.1,3.8
	c0.2,0,0.4,0,0.6,0h53.9L169.8,227.2L124.6,182v-0.1l-0.1-0.2c-1.1-1.7-3.3-2.2-5-1.1c-0.2,0.1-0.4,0.3-0.5,0.4L1.1,292
	c-1.4,1.3-1.4,3.6-0.1,4.9c1.3,1.3,3.4,1.4,4.8,0.2l0,0l115.4-108.7l45.6,45.5c1,1.7,3.1,2.2,4.8,1.2c0.3-0.2,0.5-0.4,0.8-0.6
	l118.8-118.8v54c-0.1,1.9,1.4,3.5,3.3,3.7s3.5-1.4,3.7-3.3c0-0.1,0-0.2,0-0.4v-62.3c-0.1-1.9-1.6-3.4-3.5-3.5L232.2,104z"/>
</svg>
