<?xml version="1.0" encoding="utf-8"?>
<!-- Generator: Adobe Illustrator 23.0.3, SVG Export Plug-In . SVG Version: 6.00 Build 0)  -->
<svg version="1.1" id="Capa_1" xmlns="http://www.w3.org/2000/svg" xmlns:xlink="http://www.w3.org/1999/xlink" x="0px" y="0px"
	 viewBox="0 0 294 294" style="enable-background:new 0 0 294 294;" xml:space="preserve">
<style type="text/css">
	.st0{fill:#6CBB8E;}
</style>
<title>valor-terreno</title>
<path class="st0" d="M147.7,42.7c-59.6,0-107.8,48.3-107.8,107.8s48.3,107.8,107.8,107.8S255.5,210,255.5,150.5l0,0
	C255.4,91,207.2,42.8,147.7,42.7z M147.7,65.8c46.8,0,84.7,37.9,84.7,84.7s-37.9,84.7-84.7,84.7s-84.7-37.9-84.7-84.7c0,0,0,0,0,0
	c-0.1-46.7,37.7-84.6,84.4-84.7C147.4,65.8,147.5,65.8,147.7,65.8z M147.7,102.5c-5,0-9,4-9,9v1.3c-3.4,1-6.5,2.6-9.3,4.8
	c-5.3,4.4-8.4,11-8.4,17.9c0,7.8,5,14.6,9.9,17.6s9.8,4.2,13.6,5.7c4.9,2,9,3.3,10.8,4.4c3.6,5.5-3.5,8.2-7.5,8.2
	c-4.1-0.1-7.9-2.2-10.2-5.6c-2.3-4.6-7.9-6.4-12.5-4c-0.1,0-0.1,0.1-0.2,0.1c-4.3,2.9-5.5,8.7-2.7,13.1c3.7,6.2,9.5,10.8,16.4,13
	v1.5c0,5,4,9,9,9s9-4,9-9v-1.2c3.4-1,6.6-2.6,9.4-4.9c5.3-4.4,8.4-11,8.4-17.9c0-7.8-5-14.6-9.9-17.6s-9.8-4.3-13.6-5.8
	c-4.9-2-9-3.2-10.8-4.3c-3.6-5.6,3.5-8.2,7.6-8.2c4.1,0.1,8,2.2,10.2,5.6c2.4,4.4,8,6,12.4,3.6c0,0,0,0,0,0
	c4.2-2.8,5.5-8.5,2.7-12.8c-3.7-6.2-9.6-10.8-16.5-13v-1.3C156.7,106.6,152.7,102.5,147.7,102.5
	C147.7,102.5,147.7,102.5,147.7,102.5z"/>
<line class="st0" x1="231.1" y1="147" x2="282.5" y2="147"/>
<path class="st0" d="M282.5,158.6h-51.4c-6.4,0-11.6-5.2-11.6-11.6s5.2-11.6,11.6-11.6h51.4c6.4,0,11.5,5.2,11.5,11.6
	S288.8,158.6,282.5,158.6z"/>
<line class="st0" x1="11.6" y1="147" x2="62.9" y2="147"/>
<path class="st0" d="M62.9,158.6H11.6C5.2,158.6,0,153.4,0,147s5.2-11.6,11.6-11.6h51.4c6.4,0,11.6,5.2,11.6,11.6
	S69.3,158.6,62.9,158.6z"/>
<line class="st0" x1="147" y1="231.1" x2="147" y2="282.5"/>
<path class="st0" d="M147,294c-6.4,0-11.6-5.2-11.6-11.5v-51.4c0-6.4,5.2-11.6,11.6-11.6s11.6,5.2,11.6,11.6v51.4
	C158.6,288.8,153.4,294,147,294z"/>
<line class="st0" x1="147" y1="11.6" x2="147" y2="62.9"/>
<path class="st0" d="M147,74.5c-6.4,0-11.6-5.2-11.6-11.5c0,0,0,0,0,0V11.6C135.4,5.2,140.6,0,147,0s11.6,5.2,11.6,11.6v51.4
	C158.6,69.3,153.4,74.5,147,74.5z"/>
</svg>
